<?xml version="1.0" encoding="UTF-8" standalone="no"?>
<!-- Created with Inkscape (http://www.inkscape.org/) -->

<svg
   width="26.813871mm"
   height="26.813869mm"
   viewBox="0 0 26.813871 26.813869"
   version="1.1"
   id="svg1"
   xmlns="http://www.w3.org/2000/svg"
   xmlns:svg="http://www.w3.org/2000/svg">
  <defs
     id="defs1" />
  <g
     id="layer1"
     transform="translate(-63.909214,-21.106471)">
    <path
       style="font-weight:bold;font-size:25.4px;font-family:Arial;-inkscape-font-specification:'Arial Bold';fill:#000000;fill-opacity:1;stroke:none;stroke-width:8.219;stroke-linecap:round;stroke-linejoin:round;stroke-opacity:1;paint-order:stroke fill markers"
       d="m 83.095643,26.563501 q -0.16123,-0.16123 -0.37207,-0.06201 -0.21084,0.08682 -0.223242,0.32246 v 1.128614 q 0,0.322461 -0.322461,0.322461 h -8.818066 q -1.364258,0 -2.505274,0.669726 -1.128613,0.669727 -1.810742,1.79834 -0.669727,1.116211 -0.669727,2.480469 v 2.827734 q 0,0.21084 0.186036,0.297656 0.198437,0.07441 0.359668,-0.06201 l 2.009179,-1.835547 q 0.09922,-0.08682 0.09922,-0.223242 v -0.992188 q 0,-0.967383 0.682129,-1.649512 0.694531,-0.694531 1.661914,-0.694531 l 8.818066,0.03721 q 0.322461,0 0.322461,0.322461 V 32.3802 q 0,0.235645 0.21084,0.334864 0.21084,0.08682 0.37207,-0.07441 l 3.038574,-2.790528 q 0.124024,-0.09922 0.124024,-0.248047 0,-0.148828 -0.124024,-0.260449 z M 71.536659,42.450903 q 0.161231,0.161231 0.37207,0.07441 0.223243,-0.09922 0.223243,-0.322461 v -1.141015 q 0,-0.322461 0.32246,-0.322461 h 8.818067 q 1.37666,0 2.505273,-0.669727 1.128613,-0.669726 1.79834,-1.785937 0.682129,-1.128613 0.682129,-2.492871 v -2.790527 q 0,-0.21084 -0.198438,-0.285254 -0.186035,-0.08682 -0.347265,0.04961 l -1.996778,1.83555 q -0.111621,0.08682 -0.111621,0.223242 v 0.95498 q 0,0.967383 -0.682129,1.661915 -0.682128,0.682128 -1.649511,0.682128 l -8.818067,-0.0248 q -0.334863,0 -0.334863,-0.334864 v -1.128613 q 0,-0.235644 -0.21084,-0.322461 -0.198437,-0.09922 -0.37207,0.06201 l -3.038574,2.790527 q -0.111621,0.09922 -0.111621,0.26045 0,0.148828 0.111621,0.248046 z M 68.374061,21.10647 h 17.88418 q 1.227832,0 2.244824,0.607715 1.016992,0.595312 1.612305,1.612305 0.607715,1.016992 0.607715,2.244824 v 17.884179 q 0,1.227832 -0.607715,2.244824 -0.595313,1.016993 -1.612305,1.612305 -1.016992,0.607715 -2.244824,0.607715 h -17.88418 q -1.227832,0 -2.244824,-0.607715 Q 65.112245,46.71731 64.50453,45.700317 63.909218,44.683325 63.909218,43.455493 V 25.571314 q 0,-1.227832 0.595312,-2.244824 0.607715,-1.016993 1.624707,-1.612305 1.016992,-0.607715 2.244824,-0.607715 z m -2.678906,4.464844 v 17.884179 q 0,1.103809 0.781348,1.885156 0.79375,0.79375 1.897558,0.79375 h 17.88418 q 1.116211,0 1.897558,-0.79375 0.781348,-0.781347 0.781348,-1.885156 V 25.571314 q 0,-1.103809 -0.781348,-1.885156 -0.781347,-0.79375 -1.897558,-0.79375 h -17.88418 q -1.103808,0 -1.897558,0.79375 -0.781348,0.781347 -0.781348,1.885156 z"
       id="text1-8"
       aria-label="ðŸ”" />
  </g>
</svg>
