M48
; DRILL file {KiCad 8.0.8} date 2025-02-10T09:37:50+0100
; FORMAT={-:-/ absolute / inch / decimal}
; #@! TF.CreationDate,2025-02-10T09:37:50+01:00
; #@! TF.GenerationSoftware,Kicad,Pcbnew,8.0.8
; #@! TF.FileFunction,Plated,1,2,PTH
FMAT,2
INCH
; #@! TA.AperFunction,Plated,PTH,ViaDrill
T1C0.0157
; #@! TA.AperFunction,Plated,PTH,ComponentDrill
T2C0.0315
; #@! TA.AperFunction,Plated,PTH,ComponentDrill
T3C0.0354
; #@! TA.AperFunction,Plated,PTH,ComponentDrill
T4C0.0394
; #@! TA.AperFunction,Plated,PTH,ComponentDrill
T5C0.0469
; #@! TA.AperFunction,Plated,PTH,ComponentDrill
T6C0.0728
%
G90
G05
T1
X2.4108Y-3.3783
X2.4108Y-3.4383
X2.4608Y-3.5217
X2.8108Y-3.3383
X2.8108Y-3.3783
X2.8508Y-3.3383
X2.8508Y-3.3783
X2.8908Y-3.3783
X3.0308Y-3.7996
X3.0908Y-3.0383
T2
X3.3408Y-4.3483
X3.7408Y-4.3483
X3.8124Y-3.5683
X3.8124Y-3.6983
X4.0092Y-3.5683
X4.0092Y-3.6983
T3
X2.8908Y-4.3494
X2.8908Y-4.4494
X3.5108Y-2.8083
X3.8108Y-2.8083
T4
X1.7908Y-2.9983
X1.7908Y-3.0983
X1.7908Y-3.1983
X1.7908Y-3.2983
X1.7908Y-3.3983
X1.7908Y-3.4983
X2.0404Y-3.3473
X2.1404Y-3.3473
X2.1408Y-3.5483
X2.1408Y-3.6483
X2.1408Y-3.7483
X2.2008Y-2.8383
X2.2008Y-3.1375
X2.2404Y-3.3473
X2.2408Y-3.5483
X2.2408Y-3.6483
X2.2408Y-3.7483
X2.3404Y-3.3473
X2.5408Y-3.6483
X2.6408Y-3.6483
X2.7404Y-4.6847
X2.7408Y-3.6483
X2.8404Y-4.6847
X2.8408Y-3.6483
X2.9404Y-4.6847
X2.9408Y-3.6483
X3.0404Y-4.6847
X3.0408Y-3.6483
X3.1408Y-3.6483
X3.2408Y-3.6483
X3.3908Y-4.0183
X3.3908Y-4.1183
X3.3908Y-4.2183
X3.4908Y-4.0183
X3.4908Y-4.1183
X3.4908Y-4.2183
X3.5908Y-4.0183
X3.5908Y-4.1183
X3.5908Y-4.2183
X3.6908Y-4.0183
X3.6908Y-4.1183
X3.6908Y-4.2183
X3.7739Y-3.1719
X3.7739Y-3.2719
X3.7739Y-3.3719
T5
X3.6203Y-3.6283
X3.6203Y-3.7283
T6
X3.4908Y-2.9632
X3.4908Y-3.1483
X3.4908Y-3.3333
M30
