%TF.GenerationSoftware,KiCad,Pcbnew,8.0.8*%
%TF.CreationDate,2025-02-10T09:37:57+01:00*%
%TF.ProjectId,Otto-ESP32-XIAO-Lite,4f74746f-2d45-4535-9033-322d5849414f,1.0*%
%TF.SameCoordinates,Original*%
%TF.FileFunction,Copper,L2,Bot*%
%TF.FilePolarity,Positive*%
%FSLAX46Y46*%
G04 Gerber Fmt 4.6, Leading zero omitted, Abs format (unit mm)*
G04 Created by KiCad (PCBNEW 8.0.8) date 2025-02-10 09:37:57*
%MOMM*%
%LPD*%
G01*
G04 APERTURE LIST*
G04 Aperture macros list*
%AMRoundRect*
0 Rectangle with rounded corners*
0 $1 Rounding radius*
0 $2 $3 $4 $5 $6 $7 $8 $9 X,Y pos of 4 corners*
0 Add a 4 corners polygon primitive as box body*
4,1,4,$2,$3,$4,$5,$6,$7,$8,$9,$2,$3,0*
0 Add four circle primitives for the rounded corners*
1,1,$1+$1,$2,$3*
1,1,$1+$1,$4,$5*
1,1,$1+$1,$6,$7*
1,1,$1+$1,$8,$9*
0 Add four rect primitives between the rounded corners*
20,1,$1+$1,$2,$3,$4,$5,0*
20,1,$1+$1,$4,$5,$6,$7,0*
20,1,$1+$1,$6,$7,$8,$9,0*
20,1,$1+$1,$8,$9,$2,$3,0*%
G04 Aperture macros list end*
%TA.AperFunction,ComponentPad*%
%ADD10R,1.700000X1.700000*%
%TD*%
%TA.AperFunction,ComponentPad*%
%ADD11O,1.700000X1.700000*%
%TD*%
%TA.AperFunction,ComponentPad*%
%ADD12R,1.800000X1.800000*%
%TD*%
%TA.AperFunction,ComponentPad*%
%ADD13O,1.800000X1.800000*%
%TD*%
%TA.AperFunction,ComponentPad*%
%ADD14C,1.600000*%
%TD*%
%TA.AperFunction,ComponentPad*%
%ADD15O,1.600000X1.600000*%
%TD*%
%TA.AperFunction,ComponentPad*%
%ADD16RoundRect,0.250000X-0.845000X0.620000X-0.845000X-0.620000X0.845000X-0.620000X0.845000X0.620000X0*%
%TD*%
%TA.AperFunction,ComponentPad*%
%ADD17O,2.190000X1.740000*%
%TD*%
%TA.AperFunction,ComponentPad*%
%ADD18R,2.300000X1.500000*%
%TD*%
%TA.AperFunction,ComponentPad*%
%ADD19O,2.300000X1.500000*%
%TD*%
%TA.AperFunction,ComponentPad*%
%ADD20C,1.800000*%
%TD*%
%TA.AperFunction,ComponentPad*%
%ADD21R,2.775000X2.775000*%
%TD*%
%TA.AperFunction,ComponentPad*%
%ADD22C,2.775000*%
%TD*%
%TA.AperFunction,ComponentPad*%
%ADD23R,2.000000X2.000000*%
%TD*%
%TA.AperFunction,ComponentPad*%
%ADD24C,2.000000*%
%TD*%
%TA.AperFunction,ViaPad*%
%ADD25C,0.800000*%
%TD*%
%TA.AperFunction,Conductor*%
%ADD26C,1.000000*%
%TD*%
%TA.AperFunction,Conductor*%
%ADD27C,1.800000*%
%TD*%
%TA.AperFunction,Conductor*%
%ADD28C,0.800000*%
%TD*%
%TA.AperFunction,Conductor*%
%ADD29C,0.400000*%
%TD*%
%TA.AperFunction,Conductor*%
%ADD30C,0.200000*%
%TD*%
G04 APERTURE END LIST*
D10*
%TO.P,J5,1,Pin_1*%
%TO.N,Servo-5*%
X56916346Y-90126000D03*
D11*
%TO.P,J5,2,Pin_2*%
%TO.N,+5V*%
X56916346Y-92666000D03*
%TO.P,J5,3,Pin_3*%
%TO.N,GND*%
X56916346Y-95206000D03*
%TD*%
D10*
%TO.P,J8,1,Pin_1*%
%TO.N,+5V*%
X45486346Y-76156000D03*
D11*
%TO.P,J8,2,Pin_2*%
%TO.N,+3.3V*%
X45486346Y-78696000D03*
%TO.P,J8,3,Pin_3*%
%TO.N,SDA*%
X45486346Y-81236000D03*
%TO.P,J8,4,Pin_4*%
%TO.N,SCL*%
X45486346Y-83776000D03*
%TO.P,J8,5,Pin_5*%
%TO.N,unconnected-(J8-Pin_5-Pad5)*%
X45486346Y-86316000D03*
%TO.P,J8,6,Pin_6*%
%TO.N,GND*%
X45486346Y-88856000D03*
%TD*%
D12*
%TO.P,D4,1,K*%
%TO.N,Net-(D4-K)*%
X89174346Y-71330000D03*
D13*
%TO.P,D4,2,A*%
%TO.N,+5V*%
X96794346Y-71330000D03*
%TD*%
D10*
%TO.P,J4,1,Pin_1*%
%TO.N,Servo-4*%
X86126346Y-102064000D03*
D11*
%TO.P,J4,2,Pin_2*%
%TO.N,+5V*%
X86126346Y-104604000D03*
%TO.P,J4,3,Pin_3*%
%TO.N,GND*%
X86126346Y-107144000D03*
%TD*%
D14*
%TO.P,C3,1*%
%TO.N,+BATT*%
X101834346Y-90634000D03*
%TO.P,C3,2*%
%TO.N,GND*%
X96834346Y-90634000D03*
%TD*%
%TO.P,R1,1*%
%TO.N,+5V*%
X95016346Y-110446000D03*
D15*
%TO.P,R1,2*%
%TO.N,Net-(D1-A)*%
X84856346Y-110446000D03*
%TD*%
D10*
%TO.P,J6,1,Pin_1*%
%TO.N,Servo-6*%
X54376346Y-90126000D03*
D11*
%TO.P,J6,2,Pin_2*%
%TO.N,+5V*%
X54376346Y-92666000D03*
%TO.P,J6,3,Pin_3*%
%TO.N,GND*%
X54376346Y-95206000D03*
%TD*%
D16*
%TO.P,J10,1,Pin_1*%
%TO.N,Net-(J10-Pin_1)*%
X91955312Y-92158000D03*
D17*
%TO.P,J10,2,Pin_2*%
%TO.N,GND*%
X91955312Y-94698000D03*
%TD*%
D18*
%TO.P,U2,1,IN*%
%TO.N,+BATT*%
X95856846Y-80567000D03*
D19*
%TO.P,U2,2,GND*%
%TO.N,GND*%
X95856846Y-83107000D03*
%TO.P,U2,3,OUT*%
%TO.N,+5V*%
X95856846Y-85646999D03*
%TD*%
D10*
%TO.P,J2,1,Pin_1*%
%TO.N,Servo-2*%
X91206346Y-102064000D03*
D11*
%TO.P,J2,2,Pin_2*%
%TO.N,+5V*%
X91206346Y-104604000D03*
%TO.P,J2,3,Pin_3*%
%TO.N,GND*%
X91206346Y-107144000D03*
%TD*%
D10*
%TO.P,J3,1,Pin_1*%
%TO.N,Servo-3*%
X88666346Y-102064000D03*
D11*
%TO.P,J3,2,Pin_2*%
%TO.N,+5V*%
X88666346Y-104604000D03*
%TO.P,J3,3,Pin_3*%
%TO.N,GND*%
X88666346Y-107144000D03*
%TD*%
D10*
%TO.P,J1,1,Pin_1*%
%TO.N,Servo-1*%
X93746346Y-102064000D03*
D11*
%TO.P,J1,2,Pin_2*%
%TO.N,+5V*%
X93746346Y-104604000D03*
%TO.P,J1,3,Pin_3*%
%TO.N,GND*%
X93746346Y-107144000D03*
%TD*%
D10*
%TO.P,J13,1,Pin_1*%
%TO.N,+3.3V*%
X64536345Y-92666000D03*
D11*
%TO.P,J13,2,Pin_2*%
%TO.N,GND*%
X67076345Y-92666000D03*
%TO.P,J13,3,Pin_3*%
%TO.N,SCL*%
X69616344Y-92666000D03*
%TO.P,J13,4,Pin_4*%
%TO.N,SDA*%
X72156345Y-92666000D03*
%TO.P,J13,5,Pin_5*%
%TO.N,unconnected-(J13-Pin_5-Pad5)*%
X74696345Y-92666000D03*
%TO.P,J13,6,Pin_6*%
%TO.N,unconnected-(J13-Pin_6-Pad6)*%
X77236345Y-92666000D03*
%TO.P,J13,7,Pin_7*%
%TO.N,unconnected-(J13-Pin_7-Pad7)*%
X79776345Y-92666000D03*
%TO.P,J13,8,Pin_8*%
%TO.N,unconnected-(J13-Pin_8-Pad8)*%
X82316346Y-92666000D03*
%TD*%
D14*
%TO.P,C4,1*%
%TO.N,+5V*%
X101834346Y-93936000D03*
%TO.P,C4,2*%
%TO.N,GND*%
X96834346Y-93936000D03*
%TD*%
D12*
%TO.P,D1,1,K*%
%TO.N,GND*%
X73426346Y-113016000D03*
D20*
%TO.P,D1,2,A*%
%TO.N,Net-(D1-A)*%
X73426346Y-110476000D03*
%TD*%
D10*
%TO.P,J12,1,Pin_1*%
%TO.N,GND*%
X59446346Y-85021000D03*
D11*
%TO.P,J12,2,Pin_2*%
%TO.N,+3.3V*%
X56906346Y-85021000D03*
%TO.P,J12,3,Pin_3*%
%TO.N,SCL*%
X54366347Y-85021000D03*
%TO.P,J12,4,Pin_4*%
%TO.N,SDA*%
X51826346Y-85021000D03*
%TD*%
D10*
%TO.P,J7,1,Pin_1*%
%TO.N,GND*%
X77226346Y-118991000D03*
D11*
%TO.P,J7,2,Pin_2*%
%TO.N,Echo*%
X74686346Y-118991000D03*
%TO.P,J7,3,Pin_3*%
%TO.N,Trig*%
X72146346Y-118991000D03*
%TO.P,J7,4,Pin_4*%
%TO.N,+3.3V*%
X69606346Y-118991000D03*
%TD*%
D21*
%TO.P,SW1,1,A*%
%TO.N,+BATT*%
X88666346Y-75266000D03*
D22*
%TO.P,SW1,2,B*%
%TO.N,Net-(J10-Pin_1)*%
X88666346Y-79966000D03*
%TO.P,SW1,3,C*%
%TO.N,unconnected-(SW1-C-Pad3)*%
X88666346Y-84666000D03*
%TD*%
D23*
%TO.P,BZ1,1,+*%
%TO.N,Buzzer*%
X55900346Y-72092000D03*
D24*
%TO.P,BZ1,2,-*%
%TO.N,GND*%
X55900346Y-79692000D03*
%TD*%
D25*
%TO.N,GND*%
X72410346Y-85808000D03*
X72410346Y-84792000D03*
X71394346Y-85808000D03*
X73426346Y-85808000D03*
X61234346Y-85808000D03*
X71394346Y-84792000D03*
X61234346Y-87332000D03*
%TO.N,+5V*%
X76982346Y-96510000D03*
%TO.N,Servo-5*%
X62504346Y-89452000D03*
%TO.N,+3.3V*%
X78506346Y-77172000D03*
%TD*%
D26*
%TO.N,Net-(D1-A)*%
X84826346Y-110476000D02*
X84856346Y-110446000D01*
X73426346Y-110476000D02*
X84826346Y-110476000D01*
D27*
%TO.N,+5V*%
X88666346Y-104604000D02*
X91206346Y-104604000D01*
D28*
X82570346Y-103080000D02*
X84094346Y-104604000D01*
D27*
X99334346Y-104604000D02*
X93746346Y-104604000D01*
X99334346Y-91142000D02*
X99334346Y-87332000D01*
D26*
X81046346Y-75521000D02*
X88031345Y-82505999D01*
X48026346Y-76156000D02*
X48661346Y-75521000D01*
D27*
X91206346Y-104604000D02*
X93746346Y-104604000D01*
X101834346Y-93936000D02*
X99334346Y-93936000D01*
D28*
X82570346Y-98000000D02*
X82570346Y-103080000D01*
D26*
X95856846Y-85646999D02*
X97717347Y-85646999D01*
X88031345Y-82505999D02*
X91206345Y-82505999D01*
D27*
X99334346Y-103080000D02*
X99334346Y-104604000D01*
D26*
X45486346Y-76156000D02*
X48026346Y-76156000D01*
X97717347Y-85646999D02*
X99080346Y-84284000D01*
X99080346Y-72092000D02*
X98318346Y-71330000D01*
D28*
X84094346Y-104604000D02*
X86126346Y-104604000D01*
D27*
X99334346Y-108922000D02*
X99334346Y-103080000D01*
D26*
X98318346Y-71330000D02*
X96794346Y-71330000D01*
X94347345Y-85646999D02*
X95856846Y-85646999D01*
D28*
X81046346Y-96476000D02*
X82570346Y-98000000D01*
D26*
X91206345Y-82505999D02*
X94347345Y-85646999D01*
D27*
X99334346Y-93174000D02*
X99334346Y-91142000D01*
D26*
X48661346Y-75521000D02*
X81046346Y-75521000D01*
D27*
X97810346Y-110446000D02*
X99334346Y-108922000D01*
X95016346Y-110446000D02*
X97810346Y-110446000D01*
D28*
X76982346Y-96510000D02*
X77016346Y-96476000D01*
D27*
X86126346Y-104604000D02*
X88666346Y-104604000D01*
X99334346Y-93174000D02*
X99334346Y-103080000D01*
X99334346Y-87332000D02*
X97649345Y-85646999D01*
X97649345Y-85646999D02*
X95856846Y-85646999D01*
X99334346Y-93936000D02*
X99334346Y-93174000D01*
D28*
X77016346Y-96476000D02*
X81046346Y-96476000D01*
D26*
X99080346Y-84284000D02*
X99080346Y-72092000D01*
D29*
%TO.N,Servo-5*%
X62504346Y-89452000D02*
X59241346Y-89452000D01*
X59241346Y-89452000D02*
X58567346Y-90126000D01*
X58567346Y-90126000D02*
X56916346Y-90126000D01*
D26*
%TO.N,+3.3V*%
X78506346Y-77172000D02*
X64095346Y-77172000D01*
X56906346Y-84361000D02*
X56906346Y-85021000D01*
X48026346Y-78696000D02*
X49550346Y-77172000D01*
X49550346Y-77172000D02*
X64095346Y-77172000D01*
X63172846Y-78094500D02*
X56906346Y-84361000D01*
X64095346Y-77172000D02*
X63172846Y-78094500D01*
X45486346Y-78696000D02*
X48026346Y-78696000D01*
D30*
X56906346Y-85036000D02*
X56906346Y-85021000D01*
D29*
%TO.N,SCL*%
X48280346Y-83776000D02*
X50825346Y-86321000D01*
X53066347Y-86321000D02*
X54366347Y-85021000D01*
X50825346Y-86321000D02*
X53066347Y-86321000D01*
X45486346Y-83776000D02*
X48280346Y-83776000D01*
%TO.N,SDA*%
X46659584Y-81236000D02*
X50444584Y-85021000D01*
X45486346Y-81236000D02*
X46659584Y-81236000D01*
X50444584Y-85021000D02*
X51826346Y-85021000D01*
%TD*%
%TA.AperFunction,Conductor*%
%TO.N,GND*%
G36*
X56450421Y-95013007D02*
G01*
X56416346Y-95140174D01*
X56416346Y-95271826D01*
X56450421Y-95398993D01*
X56483334Y-95456000D01*
X54809358Y-95456000D01*
X54842271Y-95398993D01*
X54876346Y-95271826D01*
X54876346Y-95140174D01*
X54842271Y-95013007D01*
X54809358Y-94956000D01*
X56483334Y-94956000D01*
X56450421Y-95013007D01*
G37*
%TD.AperFunction*%
%TA.AperFunction,Conductor*%
G36*
X80647603Y-76541185D02*
G01*
X80668244Y-76557818D01*
X83974850Y-79864425D01*
X87254205Y-83143780D01*
X87298686Y-83188261D01*
X87332171Y-83249584D01*
X87327187Y-83319276D01*
X87298687Y-83363623D01*
X87235849Y-83426461D01*
X87235839Y-83426472D01*
X87074003Y-83642660D01*
X87073998Y-83642668D01*
X86944576Y-83879687D01*
X86944574Y-83879691D01*
X86850194Y-84132736D01*
X86792789Y-84396617D01*
X86773523Y-84665998D01*
X86773523Y-84666001D01*
X86792789Y-84935382D01*
X86838950Y-85147575D01*
X86850196Y-85199270D01*
X86908215Y-85354824D01*
X86944574Y-85452308D01*
X86944576Y-85452312D01*
X87073998Y-85689331D01*
X87074003Y-85689339D01*
X87235839Y-85905527D01*
X87235855Y-85905545D01*
X87426800Y-86096490D01*
X87426818Y-86096506D01*
X87643006Y-86258342D01*
X87643014Y-86258347D01*
X87880033Y-86387769D01*
X87880037Y-86387771D01*
X87880039Y-86387772D01*
X88133076Y-86482150D01*
X88265022Y-86510853D01*
X88396963Y-86539556D01*
X88396965Y-86539556D01*
X88396969Y-86539557D01*
X88636353Y-86556677D01*
X88666345Y-86558823D01*
X88666346Y-86558823D01*
X88666347Y-86558823D01*
X88693333Y-86556892D01*
X88935723Y-86539557D01*
X88962983Y-86533627D01*
X88973634Y-86531309D01*
X89199616Y-86482150D01*
X89452653Y-86387772D01*
X89689683Y-86258344D01*
X89905881Y-86096500D01*
X90096846Y-85905535D01*
X90258690Y-85689337D01*
X90388118Y-85452307D01*
X90482496Y-85199270D01*
X90539903Y-84935377D01*
X90559169Y-84666000D01*
X90555943Y-84620901D01*
X90552720Y-84575828D01*
X90539903Y-84396623D01*
X90536022Y-84378784D01*
X90499344Y-84210179D01*
X90482496Y-84132730D01*
X90388118Y-83879693D01*
X90388115Y-83879687D01*
X90284498Y-83689926D01*
X90269646Y-83621653D01*
X90294063Y-83556189D01*
X90349996Y-83514317D01*
X90393330Y-83506499D01*
X90740563Y-83506499D01*
X90807602Y-83526184D01*
X90828244Y-83542818D01*
X93567080Y-86281654D01*
X93567109Y-86281685D01*
X93709559Y-86424135D01*
X93709563Y-86424138D01*
X93873424Y-86533627D01*
X93873437Y-86533634D01*
X94002178Y-86586960D01*
X94045089Y-86604734D01*
X94055509Y-86609050D01*
X94152157Y-86628274D01*
X94200480Y-86637886D01*
X94248803Y-86647499D01*
X94248804Y-86647499D01*
X94248805Y-86647499D01*
X94445885Y-86647499D01*
X94666147Y-86647499D01*
X94733186Y-86667184D01*
X94739032Y-86671181D01*
X94795967Y-86712546D01*
X94801441Y-86716523D01*
X94976821Y-86805883D01*
X95159634Y-86865283D01*
X95177610Y-86872729D01*
X95319235Y-86944892D01*
X95319242Y-86944895D01*
X95424067Y-86978954D01*
X95528895Y-87013014D01*
X95746624Y-87047499D01*
X97017877Y-87047499D01*
X97084916Y-87067184D01*
X97105558Y-87083818D01*
X97897527Y-87875787D01*
X97931012Y-87937110D01*
X97933846Y-87963468D01*
X97933846Y-89836690D01*
X97914161Y-89903729D01*
X97897527Y-89924371D01*
X97234346Y-90587552D01*
X97234346Y-90581339D01*
X97207087Y-90479606D01*
X97154426Y-90388394D01*
X97079952Y-90313920D01*
X96988740Y-90261259D01*
X96887007Y-90234000D01*
X96880791Y-90234000D01*
X97559818Y-89554974D01*
X97486824Y-89503863D01*
X97280677Y-89407735D01*
X97280663Y-89407730D01*
X97060956Y-89348860D01*
X97060945Y-89348858D01*
X96834348Y-89329034D01*
X96834344Y-89329034D01*
X96607746Y-89348858D01*
X96607735Y-89348860D01*
X96388028Y-89407730D01*
X96388019Y-89407734D01*
X96181862Y-89503866D01*
X96181858Y-89503868D01*
X96108872Y-89554973D01*
X96108872Y-89554974D01*
X96787899Y-90234000D01*
X96781685Y-90234000D01*
X96679952Y-90261259D01*
X96588740Y-90313920D01*
X96514266Y-90388394D01*
X96461605Y-90479606D01*
X96434346Y-90581339D01*
X96434346Y-90587552D01*
X95755320Y-89908526D01*
X95755319Y-89908526D01*
X95704214Y-89981512D01*
X95704212Y-89981516D01*
X95608080Y-90187673D01*
X95608076Y-90187682D01*
X95549206Y-90407389D01*
X95549204Y-90407400D01*
X95529380Y-90633997D01*
X95529380Y-90634002D01*
X95549204Y-90860599D01*
X95549206Y-90860610D01*
X95608076Y-91080317D01*
X95608081Y-91080331D01*
X95704209Y-91286478D01*
X95755320Y-91359472D01*
X96434346Y-90680446D01*
X96434346Y-90686661D01*
X96461605Y-90788394D01*
X96514266Y-90879606D01*
X96588740Y-90954080D01*
X96679952Y-91006741D01*
X96781685Y-91034000D01*
X96787899Y-91034000D01*
X96108872Y-91713025D01*
X96181859Y-91764132D01*
X96181867Y-91764136D01*
X96388014Y-91860264D01*
X96388028Y-91860269D01*
X96607735Y-91919139D01*
X96607746Y-91919141D01*
X96834344Y-91938966D01*
X96834348Y-91938966D01*
X97060945Y-91919141D01*
X97060956Y-91919139D01*
X97280663Y-91860269D01*
X97280677Y-91860264D01*
X97486824Y-91764136D01*
X97559817Y-91713024D01*
X96880793Y-91034000D01*
X96887007Y-91034000D01*
X96988740Y-91006741D01*
X97079952Y-90954080D01*
X97154426Y-90879606D01*
X97207087Y-90788394D01*
X97234346Y-90686661D01*
X97234346Y-90680447D01*
X97897527Y-91343628D01*
X97931012Y-91404951D01*
X97933846Y-91431309D01*
X97933846Y-93138690D01*
X97914161Y-93205729D01*
X97897527Y-93226371D01*
X97234346Y-93889552D01*
X97234346Y-93883339D01*
X97207087Y-93781606D01*
X97154426Y-93690394D01*
X97079952Y-93615920D01*
X96988740Y-93563259D01*
X96887007Y-93536000D01*
X96880791Y-93536000D01*
X97559818Y-92856974D01*
X97486824Y-92805863D01*
X97280677Y-92709735D01*
X97280663Y-92709730D01*
X97060956Y-92650860D01*
X97060945Y-92650858D01*
X96834348Y-92631034D01*
X96834344Y-92631034D01*
X96607746Y-92650858D01*
X96607735Y-92650860D01*
X96388028Y-92709730D01*
X96388019Y-92709734D01*
X96181862Y-92805866D01*
X96181858Y-92805868D01*
X96108872Y-92856973D01*
X96108872Y-92856974D01*
X96787899Y-93536000D01*
X96781685Y-93536000D01*
X96679952Y-93563259D01*
X96588740Y-93615920D01*
X96514266Y-93690394D01*
X96461605Y-93781606D01*
X96434346Y-93883339D01*
X96434346Y-93889552D01*
X95755320Y-93210526D01*
X95755319Y-93210526D01*
X95704214Y-93283512D01*
X95704212Y-93283516D01*
X95608080Y-93489673D01*
X95608076Y-93489682D01*
X95549206Y-93709389D01*
X95549204Y-93709400D01*
X95529380Y-93935997D01*
X95529380Y-93936002D01*
X95549204Y-94162599D01*
X95549206Y-94162610D01*
X95608076Y-94382317D01*
X95608081Y-94382331D01*
X95704209Y-94588478D01*
X95755320Y-94661472D01*
X96434346Y-93982446D01*
X96434346Y-93988661D01*
X96461605Y-94090394D01*
X96514266Y-94181606D01*
X96588740Y-94256080D01*
X96679952Y-94308741D01*
X96781685Y-94336000D01*
X96787899Y-94336000D01*
X96108872Y-95015025D01*
X96181859Y-95066132D01*
X96181867Y-95066136D01*
X96388014Y-95162264D01*
X96388028Y-95162269D01*
X96607735Y-95221139D01*
X96607746Y-95221141D01*
X96834344Y-95240966D01*
X96834348Y-95240966D01*
X97060945Y-95221141D01*
X97060956Y-95221139D01*
X97280663Y-95162269D01*
X97280677Y-95162264D01*
X97486824Y-95066136D01*
X97559817Y-95015024D01*
X96880793Y-94336000D01*
X96887007Y-94336000D01*
X96988740Y-94308741D01*
X97079952Y-94256080D01*
X97154426Y-94181606D01*
X97207087Y-94090394D01*
X97234346Y-93988661D01*
X97234346Y-93982447D01*
X97897527Y-94645628D01*
X97931012Y-94706951D01*
X97933846Y-94733309D01*
X97933846Y-103079500D01*
X97914161Y-103146539D01*
X97861357Y-103192294D01*
X97809846Y-103203500D01*
X95201142Y-103203500D01*
X95134103Y-103183815D01*
X95088348Y-103131011D01*
X95078404Y-103061853D01*
X95084961Y-103036165D01*
X95090437Y-103021483D01*
X95093681Y-102991308D01*
X95096846Y-102961873D01*
X95096845Y-101166128D01*
X95090437Y-101106517D01*
X95040142Y-100971669D01*
X95040141Y-100971668D01*
X95040139Y-100971664D01*
X94953893Y-100856455D01*
X94953890Y-100856452D01*
X94838681Y-100770206D01*
X94838674Y-100770202D01*
X94703828Y-100719908D01*
X94703829Y-100719908D01*
X94644229Y-100713501D01*
X94644227Y-100713500D01*
X94644219Y-100713500D01*
X94644210Y-100713500D01*
X92848475Y-100713500D01*
X92848469Y-100713501D01*
X92788862Y-100719908D01*
X92654017Y-100770202D01*
X92654015Y-100770203D01*
X92550657Y-100847578D01*
X92485193Y-100871995D01*
X92416920Y-100857144D01*
X92402035Y-100847578D01*
X92298676Y-100770203D01*
X92298674Y-100770202D01*
X92163828Y-100719908D01*
X92163829Y-100719908D01*
X92104229Y-100713501D01*
X92104227Y-100713500D01*
X92104219Y-100713500D01*
X92104210Y-100713500D01*
X90308475Y-100713500D01*
X90308469Y-100713501D01*
X90248862Y-100719908D01*
X90114017Y-100770202D01*
X90114015Y-100770203D01*
X90010657Y-100847578D01*
X89945193Y-100871995D01*
X89876920Y-100857144D01*
X89862035Y-100847578D01*
X89758676Y-100770203D01*
X89758674Y-100770202D01*
X89623828Y-100719908D01*
X89623829Y-100719908D01*
X89564229Y-100713501D01*
X89564227Y-100713500D01*
X89564219Y-100713500D01*
X89564210Y-100713500D01*
X87768475Y-100713500D01*
X87768469Y-100713501D01*
X87708862Y-100719908D01*
X87574017Y-100770202D01*
X87574015Y-100770203D01*
X87470657Y-100847578D01*
X87405193Y-100871995D01*
X87336920Y-100857144D01*
X87322035Y-100847578D01*
X87218676Y-100770203D01*
X87218674Y-100770202D01*
X87083828Y-100719908D01*
X87083829Y-100719908D01*
X87024229Y-100713501D01*
X87024227Y-100713500D01*
X87024219Y-100713500D01*
X87024210Y-100713500D01*
X85228475Y-100713500D01*
X85228469Y-100713501D01*
X85168862Y-100719908D01*
X85034017Y-100770202D01*
X85034010Y-100770206D01*
X84918801Y-100856452D01*
X84918798Y-100856455D01*
X84832552Y-100971664D01*
X84832548Y-100971671D01*
X84782254Y-101106517D01*
X84775847Y-101166116D01*
X84775847Y-101166123D01*
X84775846Y-101166135D01*
X84775846Y-102961870D01*
X84775847Y-102961876D01*
X84782254Y-103021483D01*
X84832548Y-103156328D01*
X84832552Y-103156335D01*
X84918798Y-103271544D01*
X84918801Y-103271547D01*
X85034010Y-103357793D01*
X85034017Y-103357797D01*
X85113926Y-103387601D01*
X85169860Y-103429472D01*
X85194277Y-103494936D01*
X85179426Y-103563209D01*
X85158274Y-103591464D01*
X85082557Y-103667181D01*
X85021234Y-103700666D01*
X84994876Y-103703500D01*
X84518707Y-103703500D01*
X84451668Y-103683815D01*
X84431026Y-103667181D01*
X83507165Y-102743319D01*
X83473680Y-102681996D01*
X83470846Y-102655638D01*
X83470846Y-97911306D01*
X83470845Y-97911304D01*
X83436242Y-97737341D01*
X83436239Y-97737332D01*
X83368362Y-97573459D01*
X83368355Y-97573446D01*
X83269811Y-97425966D01*
X83214988Y-97371143D01*
X83144381Y-97300536D01*
X82780389Y-96936544D01*
X81620385Y-95776538D01*
X81620043Y-95776309D01*
X81544523Y-95725849D01*
X81544521Y-95725848D01*
X81544521Y-95725847D01*
X81472890Y-95677985D01*
X81472888Y-95677984D01*
X81390953Y-95644046D01*
X81390952Y-95644046D01*
X81309012Y-95610105D01*
X81309004Y-95610103D01*
X81135042Y-95575500D01*
X81135038Y-95575500D01*
X81135037Y-95575500D01*
X77105038Y-95575500D01*
X76927654Y-95575500D01*
X76927652Y-95575500D01*
X76756731Y-95609499D01*
X76756727Y-95609500D01*
X76755179Y-95609807D01*
X76753679Y-95610106D01*
X76753672Y-95610108D01*
X76589805Y-95677983D01*
X76589792Y-95677990D01*
X76442312Y-95776534D01*
X76442310Y-95776537D01*
X76402608Y-95816237D01*
X76387820Y-95828868D01*
X76376479Y-95837108D01*
X76376470Y-95837116D01*
X76331085Y-95887519D01*
X76326621Y-95892223D01*
X76282885Y-95935960D01*
X76282878Y-95935968D01*
X76274654Y-95948277D01*
X76263707Y-95962352D01*
X76249814Y-95977782D01*
X76249813Y-95977783D01*
X76219253Y-96030713D01*
X76214972Y-96037597D01*
X76184333Y-96083454D01*
X76176088Y-96103357D01*
X76168921Y-96117890D01*
X76155166Y-96141716D01*
X76155164Y-96141721D01*
X76138356Y-96193449D01*
X76134988Y-96202580D01*
X76116451Y-96247333D01*
X76116449Y-96247341D01*
X76110934Y-96275067D01*
X76107248Y-96289193D01*
X76096672Y-96321743D01*
X76096671Y-96321746D01*
X76091687Y-96369160D01*
X76089985Y-96380384D01*
X76081846Y-96421307D01*
X76081846Y-96456306D01*
X76081167Y-96469266D01*
X76076886Y-96509999D01*
X76081167Y-96550731D01*
X76081846Y-96563692D01*
X76081846Y-96598692D01*
X76089985Y-96639614D01*
X76091687Y-96650839D01*
X76096671Y-96698249D01*
X76096672Y-96698256D01*
X76107249Y-96730807D01*
X76110933Y-96744927D01*
X76116451Y-96772665D01*
X76116452Y-96772670D01*
X76134987Y-96817417D01*
X76138357Y-96826550D01*
X76155166Y-96878282D01*
X76168917Y-96902100D01*
X76176089Y-96916644D01*
X76184332Y-96936544D01*
X76184334Y-96936547D01*
X76214972Y-96982402D01*
X76219256Y-96989290D01*
X76249813Y-97042216D01*
X76263701Y-97057640D01*
X76274653Y-97071721D01*
X76282881Y-97084035D01*
X76326629Y-97127783D01*
X76331098Y-97132492D01*
X76376475Y-97182888D01*
X76382167Y-97187024D01*
X76387809Y-97191123D01*
X76402605Y-97203760D01*
X76408306Y-97209461D01*
X76408311Y-97209465D01*
X76465327Y-97247561D01*
X76469302Y-97250330D01*
X76529616Y-97294151D01*
X76536253Y-97297106D01*
X76554699Y-97307277D01*
X76555799Y-97308012D01*
X76625373Y-97336831D01*
X76628276Y-97338077D01*
X76702541Y-97371143D01*
X76702543Y-97371144D01*
X76703037Y-97371249D01*
X76713719Y-97374567D01*
X76713853Y-97374127D01*
X76719676Y-97375893D01*
X76719680Y-97375895D01*
X76800250Y-97391920D01*
X76801629Y-97392204D01*
X76887700Y-97410500D01*
X76887701Y-97410500D01*
X77076991Y-97410500D01*
X77076992Y-97410500D01*
X77163045Y-97392208D01*
X77164480Y-97391912D01*
X77214034Y-97382056D01*
X77229995Y-97378882D01*
X77254184Y-97376500D01*
X80621984Y-97376500D01*
X80689023Y-97396185D01*
X80709665Y-97412819D01*
X81633527Y-98336680D01*
X81667012Y-98398003D01*
X81669846Y-98424361D01*
X81669846Y-103168696D01*
X81704449Y-103342658D01*
X81704451Y-103342666D01*
X81734206Y-103414500D01*
X81772330Y-103506542D01*
X81772331Y-103506543D01*
X81772333Y-103506547D01*
X81810194Y-103563209D01*
X81811727Y-103565503D01*
X81811728Y-103565506D01*
X81870878Y-103654031D01*
X81870884Y-103654039D01*
X83394882Y-105178035D01*
X83520311Y-105303464D01*
X83520312Y-105303465D01*
X83667792Y-105402009D01*
X83667805Y-105402016D01*
X83790709Y-105452923D01*
X83831680Y-105469894D01*
X83831682Y-105469894D01*
X83831687Y-105469896D01*
X84005650Y-105504499D01*
X84005653Y-105504500D01*
X84005655Y-105504500D01*
X84994876Y-105504500D01*
X85061915Y-105524185D01*
X85082557Y-105540818D01*
X85213981Y-105672242D01*
X85213984Y-105672244D01*
X85213988Y-105672248D01*
X85396265Y-105804679D01*
X85395113Y-105806264D01*
X85436429Y-105851922D01*
X85447858Y-105920851D01*
X85420207Y-105985016D01*
X85395893Y-106007423D01*
X85255268Y-106105890D01*
X85255266Y-106105891D01*
X85088237Y-106272920D01*
X85088232Y-106272926D01*
X84952746Y-106466420D01*
X84952745Y-106466422D01*
X84852916Y-106680507D01*
X84852913Y-106680513D01*
X84795710Y-106893999D01*
X84795710Y-106894000D01*
X85693334Y-106894000D01*
X85660421Y-106951007D01*
X85626346Y-107078174D01*
X85626346Y-107209826D01*
X85660421Y-107336993D01*
X85693334Y-107394000D01*
X84795710Y-107394000D01*
X84852913Y-107607486D01*
X84852916Y-107607492D01*
X84952745Y-107821578D01*
X85088240Y-108015082D01*
X85255263Y-108182105D01*
X85448767Y-108317600D01*
X85662853Y-108417429D01*
X85662862Y-108417433D01*
X85876346Y-108474634D01*
X85876346Y-107577012D01*
X85933353Y-107609925D01*
X86060520Y-107644000D01*
X86192172Y-107644000D01*
X86319339Y-107609925D01*
X86376346Y-107577012D01*
X86376346Y-108474633D01*
X86589829Y-108417433D01*
X86589838Y-108417429D01*
X86803924Y-108317600D01*
X86997428Y-108182105D01*
X87164451Y-108015082D01*
X87294771Y-107828968D01*
X87349348Y-107785344D01*
X87418847Y-107778151D01*
X87481201Y-107809673D01*
X87497921Y-107828968D01*
X87628240Y-108015082D01*
X87795263Y-108182105D01*
X87988767Y-108317600D01*
X88202853Y-108417429D01*
X88202862Y-108417433D01*
X88416346Y-108474634D01*
X88416346Y-107577012D01*
X88473353Y-107609925D01*
X88600520Y-107644000D01*
X88732172Y-107644000D01*
X88859339Y-107609925D01*
X88916346Y-107577012D01*
X88916346Y-108474633D01*
X89129829Y-108417433D01*
X89129838Y-108417429D01*
X89343924Y-108317600D01*
X89537428Y-108182105D01*
X89704451Y-108015082D01*
X89834771Y-107828968D01*
X89889348Y-107785344D01*
X89958847Y-107778151D01*
X90021201Y-107809673D01*
X90037921Y-107828968D01*
X90168240Y-108015082D01*
X90335263Y-108182105D01*
X90528767Y-108317600D01*
X90742853Y-108417429D01*
X90742862Y-108417433D01*
X90956346Y-108474634D01*
X90956346Y-107577012D01*
X91013353Y-107609925D01*
X91140520Y-107644000D01*
X91272172Y-107644000D01*
X91399339Y-107609925D01*
X91456346Y-107577012D01*
X91456346Y-108474633D01*
X91669829Y-108417433D01*
X91669838Y-108417429D01*
X91883924Y-108317600D01*
X92077428Y-108182105D01*
X92244451Y-108015082D01*
X92374771Y-107828968D01*
X92429348Y-107785344D01*
X92498847Y-107778151D01*
X92561201Y-107809673D01*
X92577921Y-107828968D01*
X92708240Y-108015082D01*
X92875263Y-108182105D01*
X93068767Y-108317600D01*
X93282853Y-108417429D01*
X93282862Y-108417433D01*
X93496346Y-108474634D01*
X93496346Y-107577012D01*
X93553353Y-107609925D01*
X93680520Y-107644000D01*
X93812172Y-107644000D01*
X93939339Y-107609925D01*
X93996346Y-107577012D01*
X93996346Y-108474633D01*
X94209829Y-108417433D01*
X94209838Y-108417429D01*
X94423924Y-108317600D01*
X94617428Y-108182105D01*
X94784451Y-108015082D01*
X94919946Y-107821578D01*
X95019775Y-107607492D01*
X95019778Y-107607486D01*
X95076982Y-107394000D01*
X94179358Y-107394000D01*
X94212271Y-107336993D01*
X94246346Y-107209826D01*
X94246346Y-107078174D01*
X94212271Y-106951007D01*
X94179358Y-106894000D01*
X95076982Y-106894000D01*
X95076981Y-106893999D01*
X95019778Y-106680513D01*
X95019775Y-106680507D01*
X94919946Y-106466422D01*
X94919945Y-106466420D01*
X94784459Y-106272926D01*
X94784454Y-106272920D01*
X94727715Y-106216181D01*
X94694230Y-106154858D01*
X94699214Y-106085166D01*
X94741086Y-106029233D01*
X94806550Y-106004816D01*
X94815396Y-106004500D01*
X97809846Y-106004500D01*
X97876885Y-106024185D01*
X97922640Y-106076989D01*
X97933846Y-106128500D01*
X97933846Y-108290532D01*
X97914161Y-108357571D01*
X97897527Y-108378213D01*
X97266559Y-109009181D01*
X97205236Y-109042666D01*
X97178878Y-109045500D01*
X94906124Y-109045500D01*
X94833547Y-109056995D01*
X94688393Y-109079985D01*
X94478742Y-109148103D01*
X94478739Y-109148104D01*
X94282320Y-109248187D01*
X94103987Y-109377752D01*
X94103982Y-109377756D01*
X93948102Y-109533636D01*
X93948098Y-109533641D01*
X93818533Y-109711974D01*
X93718450Y-109908393D01*
X93718449Y-109908396D01*
X93650331Y-110118047D01*
X93615846Y-110335778D01*
X93615846Y-110556221D01*
X93650331Y-110773952D01*
X93718449Y-110983603D01*
X93718450Y-110983606D01*
X93818533Y-111180025D01*
X93948098Y-111358358D01*
X93948102Y-111358363D01*
X94103982Y-111514243D01*
X94103987Y-111514247D01*
X94259538Y-111627260D01*
X94282324Y-111643815D01*
X94392133Y-111699766D01*
X94478739Y-111743895D01*
X94478742Y-111743896D01*
X94537343Y-111762936D01*
X94688395Y-111812015D01*
X94906124Y-111846500D01*
X97694989Y-111846500D01*
X97695013Y-111846501D01*
X97700124Y-111846501D01*
X97920567Y-111846501D01*
X97920568Y-111846501D01*
X98138297Y-111812015D01*
X98347952Y-111743895D01*
X98544368Y-111643815D01*
X98636926Y-111576568D01*
X98722711Y-111514242D01*
X98878588Y-111358365D01*
X98878589Y-111358363D01*
X98885649Y-111351303D01*
X98885655Y-111351296D01*
X100239642Y-109997309D01*
X100239649Y-109997303D01*
X100246709Y-109990243D01*
X100246711Y-109990242D01*
X100402588Y-109834365D01*
X100532161Y-109656022D01*
X100632241Y-109459606D01*
X100700361Y-109249951D01*
X100734846Y-109032222D01*
X100734846Y-102969778D01*
X100734846Y-95460500D01*
X100754531Y-95393461D01*
X100807335Y-95347706D01*
X100858846Y-95336500D01*
X101944567Y-95336500D01*
X101944568Y-95336500D01*
X102162297Y-95302015D01*
X102371952Y-95233895D01*
X102568368Y-95133815D01*
X102665372Y-95063338D01*
X102728961Y-95017139D01*
X102794767Y-94993659D01*
X102862821Y-95009485D01*
X102911516Y-95059591D01*
X102925846Y-95117457D01*
X102925846Y-114013293D01*
X102925728Y-114018702D01*
X102908960Y-114402753D01*
X102908017Y-114413529D01*
X102858196Y-114791958D01*
X102856318Y-114802612D01*
X102773699Y-115175281D01*
X102770899Y-115185729D01*
X102656121Y-115549762D01*
X102652421Y-115559927D01*
X102506350Y-115912576D01*
X102501778Y-115922381D01*
X102325527Y-116260958D01*
X102320119Y-116270326D01*
X102115028Y-116592257D01*
X102108823Y-116601118D01*
X101876462Y-116903938D01*
X101869509Y-116912225D01*
X101611631Y-117193653D01*
X101603982Y-117201302D01*
X101322557Y-117459183D01*
X101314270Y-117466136D01*
X101011452Y-117698499D01*
X101002591Y-117704704D01*
X100680665Y-117909796D01*
X100671296Y-117915205D01*
X100332720Y-118091459D01*
X100322917Y-118096031D01*
X99970269Y-118242106D01*
X99960104Y-118245806D01*
X99596064Y-118360591D01*
X99585614Y-118363391D01*
X99212954Y-118446010D01*
X99202301Y-118447888D01*
X98823868Y-118497713D01*
X98813092Y-118498656D01*
X98430096Y-118515382D01*
X98424686Y-118515500D01*
X81352862Y-118515500D01*
X81352207Y-118515541D01*
X81319051Y-118515541D01*
X81106599Y-118546078D01*
X81106595Y-118546079D01*
X81106589Y-118546080D01*
X80900656Y-118606539D01*
X80705418Y-118695692D01*
X80705410Y-118695697D01*
X80524848Y-118811731D01*
X80524844Y-118811734D01*
X80362631Y-118952284D01*
X80222074Y-119114489D01*
X80222070Y-119114494D01*
X80106034Y-119295043D01*
X80106031Y-119295047D01*
X80016864Y-119490289D01*
X79956394Y-119696226D01*
X79956393Y-119696231D01*
X79956393Y-119696232D01*
X79926397Y-119904854D01*
X79925846Y-119908684D01*
X79925846Y-120009039D01*
X79925066Y-120022923D01*
X79914886Y-120113270D01*
X79908708Y-120140340D01*
X79880991Y-120219553D01*
X79868944Y-120244568D01*
X79824299Y-120315624D01*
X79806987Y-120337334D01*
X79747652Y-120396672D01*
X79725943Y-120413985D01*
X79654888Y-120458634D01*
X79629873Y-120470682D01*
X79550667Y-120498401D01*
X79523598Y-120504581D01*
X79446792Y-120513238D01*
X79433650Y-120514720D01*
X79419762Y-120515500D01*
X78380949Y-120515500D01*
X78313910Y-120495815D01*
X78268155Y-120443011D01*
X78258211Y-120373853D01*
X78287236Y-120310297D01*
X78311898Y-120290421D01*
X78311335Y-120289669D01*
X78433533Y-120198190D01*
X78433536Y-120198187D01*
X78519696Y-120083093D01*
X78519700Y-120083086D01*
X78569942Y-119948379D01*
X78569944Y-119948372D01*
X78576345Y-119888844D01*
X78576346Y-119888827D01*
X78576346Y-119241000D01*
X77659358Y-119241000D01*
X77692271Y-119183993D01*
X77726346Y-119056826D01*
X77726346Y-118925174D01*
X77692271Y-118798007D01*
X77659358Y-118741000D01*
X78576346Y-118741000D01*
X78576346Y-118093172D01*
X78576345Y-118093155D01*
X78569944Y-118033627D01*
X78569942Y-118033620D01*
X78519700Y-117898913D01*
X78519696Y-117898906D01*
X78433536Y-117783812D01*
X78433533Y-117783809D01*
X78318439Y-117697649D01*
X78318432Y-117697645D01*
X78183725Y-117647403D01*
X78183718Y-117647401D01*
X78124190Y-117641000D01*
X77476346Y-117641000D01*
X77476346Y-118557988D01*
X77419339Y-118525075D01*
X77292172Y-118491000D01*
X77160520Y-118491000D01*
X77033353Y-118525075D01*
X76976346Y-118557988D01*
X76976346Y-117641000D01*
X76328501Y-117641000D01*
X76268973Y-117647401D01*
X76268966Y-117647403D01*
X76134259Y-117697645D01*
X76134252Y-117697649D01*
X76019158Y-117783809D01*
X76019155Y-117783812D01*
X75932995Y-117898906D01*
X75932991Y-117898913D01*
X75883924Y-118030470D01*
X75842053Y-118086404D01*
X75776588Y-118110821D01*
X75708315Y-118095969D01*
X75680061Y-118074819D01*
X75635712Y-118030470D01*
X75557747Y-117952505D01*
X75557743Y-117952502D01*
X75557742Y-117952501D01*
X75364180Y-117816967D01*
X75364176Y-117816965D01*
X75293073Y-117783809D01*
X75150009Y-117717097D01*
X75150005Y-117717096D01*
X75150001Y-117717094D01*
X74921759Y-117655938D01*
X74921749Y-117655936D01*
X74686347Y-117635341D01*
X74686345Y-117635341D01*
X74450942Y-117655936D01*
X74450932Y-117655938D01*
X74222690Y-117717094D01*
X74222681Y-117717098D01*
X74008517Y-117816964D01*
X74008515Y-117816965D01*
X73814943Y-117952505D01*
X73647851Y-118119597D01*
X73517921Y-118305158D01*
X73463344Y-118348783D01*
X73393846Y-118355977D01*
X73331491Y-118324454D01*
X73314771Y-118305158D01*
X73184840Y-118119597D01*
X73017748Y-117952506D01*
X73017741Y-117952501D01*
X72824180Y-117816967D01*
X72824176Y-117816965D01*
X72753073Y-117783809D01*
X72610009Y-117717097D01*
X72610005Y-117717096D01*
X72610001Y-117717094D01*
X72381759Y-117655938D01*
X72381749Y-117655936D01*
X72146347Y-117635341D01*
X72146345Y-117635341D01*
X71910942Y-117655936D01*
X71910932Y-117655938D01*
X71682690Y-117717094D01*
X71682681Y-117717098D01*
X71468517Y-117816964D01*
X71468515Y-117816965D01*
X71274943Y-117952505D01*
X71107851Y-118119597D01*
X70977921Y-118305158D01*
X70923344Y-118348783D01*
X70853846Y-118355977D01*
X70791491Y-118324454D01*
X70774771Y-118305158D01*
X70644840Y-118119597D01*
X70477748Y-117952506D01*
X70477741Y-117952501D01*
X70284180Y-117816967D01*
X70284176Y-117816965D01*
X70213073Y-117783809D01*
X70070009Y-117717097D01*
X70070005Y-117717096D01*
X70070001Y-117717094D01*
X69841759Y-117655938D01*
X69841749Y-117655936D01*
X69606347Y-117635341D01*
X69606345Y-117635341D01*
X69370942Y-117655936D01*
X69370932Y-117655938D01*
X69142690Y-117717094D01*
X69142681Y-117717098D01*
X68928517Y-117816964D01*
X68928515Y-117816965D01*
X68734943Y-117952505D01*
X68567851Y-118119597D01*
X68432311Y-118313169D01*
X68432310Y-118313171D01*
X68332444Y-118527335D01*
X68332440Y-118527344D01*
X68271284Y-118755586D01*
X68271282Y-118755596D01*
X68250687Y-118990999D01*
X68250687Y-118991000D01*
X68271282Y-119226403D01*
X68271284Y-119226413D01*
X68332440Y-119454655D01*
X68332442Y-119454659D01*
X68332443Y-119454663D01*
X68412098Y-119625483D01*
X68432311Y-119668830D01*
X68432313Y-119668834D01*
X68523654Y-119799281D01*
X68567851Y-119862401D01*
X68734945Y-120029495D01*
X68811481Y-120083086D01*
X68928511Y-120165032D01*
X68928513Y-120165033D01*
X68928516Y-120165035D01*
X69142683Y-120264903D01*
X69142689Y-120264904D01*
X69142690Y-120264905D01*
X69168142Y-120271725D01*
X69227803Y-120308090D01*
X69258332Y-120370937D01*
X69250037Y-120440312D01*
X69205552Y-120494190D01*
X69139000Y-120515465D01*
X69136049Y-120515500D01*
X67500499Y-120515500D01*
X67500454Y-120515497D01*
X67492215Y-120515497D01*
X67476642Y-120515497D01*
X67433285Y-120515499D01*
X67419402Y-120514720D01*
X67329054Y-120504544D01*
X67301984Y-120498366D01*
X67222779Y-120470655D01*
X67197758Y-120458607D01*
X67126704Y-120413963D01*
X67104995Y-120396651D01*
X67045661Y-120337320D01*
X67028348Y-120315611D01*
X66983703Y-120244562D01*
X66971655Y-120219547D01*
X66943937Y-120140334D01*
X66937759Y-120113266D01*
X66934359Y-120083093D01*
X66927626Y-120023329D01*
X66926846Y-120009446D01*
X66926846Y-119942349D01*
X66926800Y-119941644D01*
X66926800Y-119908688D01*
X66926800Y-119908685D01*
X66896256Y-119696240D01*
X66835790Y-119490304D01*
X66746632Y-119295069D01*
X66630598Y-119114509D01*
X66563595Y-119037181D01*
X66490048Y-118952298D01*
X66327847Y-118811745D01*
X66327840Y-118811740D01*
X66147298Y-118695705D01*
X66147294Y-118695703D01*
X66147291Y-118695701D01*
X65952061Y-118606534D01*
X65952058Y-118606533D01*
X65746131Y-118546059D01*
X65746119Y-118546056D01*
X65533688Y-118515505D01*
X65533682Y-118515504D01*
X65500522Y-118515503D01*
X65500472Y-118515500D01*
X65492238Y-118515500D01*
X65426370Y-118515500D01*
X65426361Y-118515499D01*
X65360477Y-118515497D01*
X65360475Y-118515497D01*
X65352237Y-118515497D01*
X65352193Y-118515500D01*
X48429052Y-118515500D01*
X48423643Y-118515382D01*
X48039595Y-118498614D01*
X48028820Y-118497671D01*
X47941450Y-118486168D01*
X47650390Y-118447849D01*
X47639737Y-118445971D01*
X47267071Y-118363352D01*
X47256623Y-118360552D01*
X46892592Y-118245774D01*
X46882426Y-118242074D01*
X46529775Y-118096001D01*
X46519971Y-118091429D01*
X46402870Y-118030470D01*
X46181390Y-117915174D01*
X46172034Y-117909773D01*
X45974316Y-117783812D01*
X45850111Y-117704684D01*
X45841250Y-117698480D01*
X45538418Y-117466109D01*
X45530131Y-117459155D01*
X45248713Y-117201283D01*
X45241064Y-117193634D01*
X44983192Y-116912216D01*
X44976238Y-116903929D01*
X44743867Y-116601096D01*
X44737663Y-116592235D01*
X44636770Y-116433865D01*
X44532570Y-116270304D01*
X44527174Y-116260958D01*
X44350916Y-115922369D01*
X44346347Y-115912571D01*
X44200274Y-115559920D01*
X44196574Y-115549754D01*
X44081796Y-115185723D01*
X44078996Y-115175275D01*
X43996375Y-114802601D01*
X43994499Y-114791955D01*
X43944676Y-114413507D01*
X43943736Y-114402771D01*
X43926963Y-114018603D01*
X43926846Y-114013210D01*
X43926846Y-110475993D01*
X72021046Y-110475993D01*
X72021046Y-110476006D01*
X72040210Y-110707297D01*
X72040212Y-110707308D01*
X72097188Y-110932300D01*
X72190421Y-111144848D01*
X72317364Y-111339150D01*
X72412513Y-111442510D01*
X72443435Y-111505164D01*
X72435574Y-111574590D01*
X72391427Y-111628746D01*
X72364617Y-111642674D01*
X72284257Y-111672646D01*
X72284252Y-111672649D01*
X72169158Y-111758809D01*
X72169155Y-111758812D01*
X72082995Y-111873906D01*
X72082991Y-111873913D01*
X72032749Y-112008620D01*
X72032747Y-112008627D01*
X72026346Y-112068155D01*
X72026346Y-112766000D01*
X73051068Y-112766000D01*
X73007013Y-112842306D01*
X72976346Y-112956756D01*
X72976346Y-113075244D01*
X73007013Y-113189694D01*
X73051068Y-113266000D01*
X72026346Y-113266000D01*
X72026346Y-113963844D01*
X72032747Y-114023372D01*
X72032749Y-114023379D01*
X72082991Y-114158086D01*
X72082995Y-114158093D01*
X72169155Y-114273187D01*
X72169158Y-114273190D01*
X72284252Y-114359350D01*
X72284259Y-114359354D01*
X72418966Y-114409596D01*
X72418973Y-114409598D01*
X72478501Y-114415999D01*
X72478518Y-114416000D01*
X73176346Y-114416000D01*
X73176346Y-113391277D01*
X73252652Y-113435333D01*
X73367102Y-113466000D01*
X73485590Y-113466000D01*
X73600040Y-113435333D01*
X73676346Y-113391277D01*
X73676346Y-114416000D01*
X74374174Y-114416000D01*
X74374190Y-114415999D01*
X74433718Y-114409598D01*
X74433725Y-114409596D01*
X74568432Y-114359354D01*
X74568439Y-114359350D01*
X74683533Y-114273190D01*
X74683536Y-114273187D01*
X74769696Y-114158093D01*
X74769700Y-114158086D01*
X74819942Y-114023379D01*
X74819944Y-114023372D01*
X74826345Y-113963844D01*
X74826346Y-113963827D01*
X74826346Y-113266000D01*
X73801624Y-113266000D01*
X73845679Y-113189694D01*
X73876346Y-113075244D01*
X73876346Y-112956756D01*
X73845679Y-112842306D01*
X73801624Y-112766000D01*
X74826346Y-112766000D01*
X74826346Y-112068172D01*
X74826345Y-112068155D01*
X74819944Y-112008627D01*
X74819942Y-112008620D01*
X74769700Y-111873913D01*
X74769696Y-111873906D01*
X74683536Y-111758812D01*
X74683533Y-111758809D01*
X74604662Y-111699766D01*
X74562791Y-111643833D01*
X74557807Y-111574141D01*
X74591293Y-111512818D01*
X74652616Y-111479334D01*
X74678973Y-111476500D01*
X84021603Y-111476500D01*
X84088642Y-111496185D01*
X84092713Y-111498916D01*
X84203612Y-111576568D01*
X84409850Y-111672739D01*
X84629654Y-111731635D01*
X84769798Y-111743896D01*
X84856344Y-111751468D01*
X84856346Y-111751468D01*
X84856348Y-111751468D01*
X84913019Y-111746509D01*
X85083038Y-111731635D01*
X85302842Y-111672739D01*
X85509080Y-111576568D01*
X85695485Y-111446047D01*
X85856393Y-111285139D01*
X85986914Y-111098734D01*
X86083085Y-110892496D01*
X86141981Y-110672692D01*
X86161814Y-110446000D01*
X86141981Y-110219308D01*
X86097262Y-110052415D01*
X86083087Y-109999511D01*
X86083084Y-109999502D01*
X86006078Y-109834363D01*
X85986914Y-109793266D01*
X85856393Y-109606861D01*
X85856391Y-109606858D01*
X85695487Y-109445954D01*
X85509080Y-109315432D01*
X85509078Y-109315431D01*
X85302843Y-109219261D01*
X85302834Y-109219258D01*
X85083043Y-109160366D01*
X85083039Y-109160365D01*
X85083038Y-109160365D01*
X85083037Y-109160364D01*
X85083032Y-109160364D01*
X84856348Y-109140532D01*
X84856344Y-109140532D01*
X84629659Y-109160364D01*
X84629648Y-109160366D01*
X84409857Y-109219258D01*
X84409848Y-109219261D01*
X84203613Y-109315431D01*
X84203611Y-109315432D01*
X84017203Y-109445954D01*
X84016560Y-109446495D01*
X84016219Y-109446643D01*
X84012772Y-109449058D01*
X84012286Y-109448364D01*
X83952549Y-109474504D01*
X83936861Y-109475500D01*
X74462810Y-109475500D01*
X74395771Y-109455815D01*
X74378825Y-109442728D01*
X74378140Y-109442098D01*
X74378130Y-109442087D01*
X74215402Y-109315431D01*
X74194974Y-109299531D01*
X73990850Y-109189064D01*
X73990841Y-109189061D01*
X73771330Y-109113702D01*
X73569272Y-109079985D01*
X73542395Y-109075500D01*
X73310297Y-109075500D01*
X73283420Y-109079985D01*
X73081361Y-109113702D01*
X72861850Y-109189061D01*
X72861841Y-109189064D01*
X72657717Y-109299531D01*
X72657711Y-109299535D01*
X72474568Y-109442081D01*
X72474565Y-109442084D01*
X72474562Y-109442086D01*
X72474562Y-109442087D01*
X72458435Y-109459606D01*
X72317362Y-109612852D01*
X72190421Y-109807151D01*
X72097188Y-110019699D01*
X72040212Y-110244691D01*
X72040210Y-110244702D01*
X72021046Y-110475993D01*
X43926846Y-110475993D01*
X43926846Y-92665999D01*
X53020687Y-92665999D01*
X53020687Y-92666000D01*
X53041282Y-92901403D01*
X53041284Y-92901413D01*
X53102440Y-93129655D01*
X53102442Y-93129659D01*
X53102443Y-93129663D01*
X53174184Y-93283512D01*
X53202311Y-93343830D01*
X53202313Y-93343834D01*
X53285626Y-93462816D01*
X53337847Y-93537396D01*
X53337852Y-93537402D01*
X53504943Y-93704493D01*
X53504949Y-93704498D01*
X53690940Y-93834730D01*
X53734565Y-93889307D01*
X53741759Y-93958805D01*
X53710236Y-94021160D01*
X53690941Y-94037880D01*
X53505268Y-94167890D01*
X53505266Y-94167891D01*
X53338237Y-94334920D01*
X53338232Y-94334926D01*
X53202746Y-94528420D01*
X53202745Y-94528422D01*
X53102916Y-94742507D01*
X53102913Y-94742513D01*
X53045710Y-94955999D01*
X53045710Y-94956000D01*
X53943334Y-94956000D01*
X53910421Y-95013007D01*
X53876346Y-95140174D01*
X53876346Y-95271826D01*
X53910421Y-95398993D01*
X53943334Y-95456000D01*
X53045710Y-95456000D01*
X53102913Y-95669486D01*
X53102916Y-95669492D01*
X53202745Y-95883578D01*
X53338240Y-96077082D01*
X53505263Y-96244105D01*
X53698767Y-96379600D01*
X53912853Y-96479429D01*
X53912862Y-96479433D01*
X54126346Y-96536634D01*
X54126346Y-95639012D01*
X54183353Y-95671925D01*
X54310520Y-95706000D01*
X54442172Y-95706000D01*
X54569339Y-95671925D01*
X54626346Y-95639012D01*
X54626346Y-96536633D01*
X54839829Y-96479433D01*
X54839838Y-96479429D01*
X55053924Y-96379600D01*
X55247428Y-96244105D01*
X55414451Y-96077082D01*
X55544771Y-95890968D01*
X55599348Y-95847344D01*
X55668847Y-95840151D01*
X55731201Y-95871673D01*
X55747921Y-95890968D01*
X55878240Y-96077082D01*
X56045263Y-96244105D01*
X56238767Y-96379600D01*
X56452853Y-96479429D01*
X56452862Y-96479433D01*
X56666346Y-96536634D01*
X56666346Y-95639012D01*
X56723353Y-95671925D01*
X56850520Y-95706000D01*
X56982172Y-95706000D01*
X57109339Y-95671925D01*
X57166346Y-95639012D01*
X57166346Y-96536633D01*
X57379829Y-96479433D01*
X57379838Y-96479429D01*
X57593924Y-96379600D01*
X57787428Y-96244105D01*
X57954451Y-96077082D01*
X58089946Y-95883578D01*
X58189775Y-95669492D01*
X58189778Y-95669486D01*
X58246982Y-95456000D01*
X57349358Y-95456000D01*
X57382271Y-95398993D01*
X57416346Y-95271826D01*
X57416346Y-95140174D01*
X57382271Y-95013007D01*
X57349358Y-94956000D01*
X58246982Y-94956000D01*
X58246981Y-94955999D01*
X58189778Y-94742513D01*
X58189775Y-94742507D01*
X58089946Y-94528422D01*
X58089945Y-94528420D01*
X57954459Y-94334926D01*
X57954454Y-94334920D01*
X57787424Y-94167890D01*
X57601751Y-94037879D01*
X57558126Y-93983302D01*
X57550934Y-93913804D01*
X57582456Y-93851449D01*
X57601752Y-93834730D01*
X57643488Y-93805506D01*
X57787747Y-93704495D01*
X57954841Y-93537401D01*
X58090381Y-93343830D01*
X58190249Y-93129663D01*
X58251409Y-92901408D01*
X58272005Y-92666000D01*
X58251409Y-92430592D01*
X58190249Y-92202337D01*
X58090381Y-91988171D01*
X58084770Y-91980158D01*
X57954842Y-91794600D01*
X57928377Y-91768135D01*
X63185845Y-91768135D01*
X63185845Y-93563870D01*
X63185846Y-93563876D01*
X63192253Y-93623483D01*
X63242547Y-93758328D01*
X63242551Y-93758335D01*
X63328797Y-93873544D01*
X63328800Y-93873547D01*
X63444009Y-93959793D01*
X63444016Y-93959797D01*
X63578862Y-94010091D01*
X63578861Y-94010091D01*
X63585789Y-94010835D01*
X63638472Y-94016500D01*
X65434217Y-94016499D01*
X65493828Y-94010091D01*
X65628676Y-93959796D01*
X65743891Y-93873546D01*
X65830141Y-93758331D01*
X65879347Y-93626401D01*
X65921217Y-93570468D01*
X65986682Y-93546050D01*
X66054955Y-93560901D01*
X66083210Y-93582053D01*
X66205262Y-93704105D01*
X66398766Y-93839600D01*
X66612852Y-93939429D01*
X66612861Y-93939433D01*
X66826345Y-93996634D01*
X66826345Y-93099012D01*
X66883352Y-93131925D01*
X67010519Y-93166000D01*
X67142171Y-93166000D01*
X67269338Y-93131925D01*
X67326345Y-93099012D01*
X67326345Y-93996633D01*
X67539828Y-93939433D01*
X67539837Y-93939429D01*
X67753923Y-93839600D01*
X67947427Y-93704105D01*
X68114450Y-93537082D01*
X68244464Y-93351405D01*
X68299041Y-93307781D01*
X68368540Y-93300588D01*
X68430894Y-93332110D01*
X68447612Y-93351404D01*
X68447919Y-93351842D01*
X68577844Y-93537395D01*
X68577849Y-93537401D01*
X68744943Y-93704495D01*
X68841728Y-93772265D01*
X68938509Y-93840032D01*
X68938511Y-93840033D01*
X68938514Y-93840035D01*
X69152681Y-93939903D01*
X69380936Y-94001063D01*
X69557378Y-94016500D01*
X69616343Y-94021659D01*
X69616344Y-94021659D01*
X69616345Y-94021659D01*
X69675310Y-94016500D01*
X69851752Y-94001063D01*
X70080007Y-93939903D01*
X70294174Y-93840035D01*
X70487745Y-93704495D01*
X70654839Y-93537401D01*
X70784770Y-93351839D01*
X70839346Y-93308216D01*
X70908844Y-93301022D01*
X70971199Y-93332545D01*
X70987917Y-93351838D01*
X71117850Y-93537401D01*
X71284944Y-93704495D01*
X71381729Y-93772265D01*
X71478510Y-93840032D01*
X71478512Y-93840033D01*
X71478515Y-93840035D01*
X71692682Y-93939903D01*
X71920937Y-94001063D01*
X72097379Y-94016500D01*
X72156344Y-94021659D01*
X72156345Y-94021659D01*
X72156346Y-94021659D01*
X72215311Y-94016500D01*
X72391753Y-94001063D01*
X72620008Y-93939903D01*
X72834175Y-93840035D01*
X73027746Y-93704495D01*
X73194840Y-93537401D01*
X73324771Y-93351841D01*
X73379347Y-93308217D01*
X73448845Y-93301023D01*
X73511200Y-93332546D01*
X73527920Y-93351842D01*
X73657845Y-93537395D01*
X73657850Y-93537401D01*
X73824944Y-93704495D01*
X73921729Y-93772265D01*
X74018510Y-93840032D01*
X74018512Y-93840033D01*
X74018515Y-93840035D01*
X74232682Y-93939903D01*
X74460937Y-94001063D01*
X74637379Y-94016500D01*
X74696344Y-94021659D01*
X74696345Y-94021659D01*
X74696346Y-94021659D01*
X74755311Y-94016500D01*
X74931753Y-94001063D01*
X75160008Y-93939903D01*
X75374175Y-93840035D01*
X75567746Y-93704495D01*
X75734840Y-93537401D01*
X75864771Y-93351841D01*
X75919347Y-93308217D01*
X75988845Y-93301023D01*
X76051200Y-93332546D01*
X76067920Y-93351842D01*
X76197845Y-93537395D01*
X76197850Y-93537401D01*
X76364944Y-93704495D01*
X76461729Y-93772265D01*
X76558510Y-93840032D01*
X76558512Y-93840033D01*
X76558515Y-93840035D01*
X76772682Y-93939903D01*
X77000937Y-94001063D01*
X77177379Y-94016500D01*
X77236344Y-94021659D01*
X77236345Y-94021659D01*
X77236346Y-94021659D01*
X77295311Y-94016500D01*
X77471753Y-94001063D01*
X77700008Y-93939903D01*
X77914175Y-93840035D01*
X78107746Y-93704495D01*
X78274840Y-93537401D01*
X78404771Y-93351841D01*
X78459347Y-93308217D01*
X78528845Y-93301023D01*
X78591200Y-93332546D01*
X78607920Y-93351842D01*
X78737845Y-93537395D01*
X78737850Y-93537401D01*
X78904944Y-93704495D01*
X79001729Y-93772265D01*
X79098510Y-93840032D01*
X79098512Y-93840033D01*
X79098515Y-93840035D01*
X79312682Y-93939903D01*
X79540937Y-94001063D01*
X79717379Y-94016500D01*
X79776344Y-94021659D01*
X79776345Y-94021659D01*
X79776346Y-94021659D01*
X79835311Y-94016500D01*
X80011753Y-94001063D01*
X80240008Y-93939903D01*
X80454175Y-93840035D01*
X80647746Y-93704495D01*
X80814840Y-93537401D01*
X80944771Y-93351839D01*
X80999347Y-93308216D01*
X81068845Y-93301022D01*
X81131200Y-93332545D01*
X81147918Y-93351838D01*
X81277851Y-93537401D01*
X81444945Y-93704495D01*
X81541730Y-93772265D01*
X81638511Y-93840032D01*
X81638513Y-93840033D01*
X81638516Y-93840035D01*
X81852683Y-93939903D01*
X82080938Y-94001063D01*
X82257380Y-94016500D01*
X82316345Y-94021659D01*
X82316346Y-94021659D01*
X82316347Y-94021659D01*
X82375312Y-94016500D01*
X82551754Y-94001063D01*
X82780009Y-93939903D01*
X82994176Y-93840035D01*
X83187747Y-93704495D01*
X83354841Y-93537401D01*
X83490381Y-93343830D01*
X83590249Y-93129663D01*
X83651409Y-92901408D01*
X83672005Y-92666000D01*
X83651409Y-92430592D01*
X83590249Y-92202337D01*
X83490381Y-91988171D01*
X83484771Y-91980158D01*
X83354840Y-91794597D01*
X83187748Y-91627506D01*
X83187741Y-91627501D01*
X82994180Y-91491967D01*
X82994176Y-91491965D01*
X82985637Y-91487983D01*
X90359812Y-91487983D01*
X90359812Y-92828001D01*
X90359813Y-92828018D01*
X90370312Y-92930796D01*
X90370313Y-92930799D01*
X90425497Y-93097331D01*
X90425499Y-93097336D01*
X90445439Y-93129664D01*
X90517600Y-93246656D01*
X90641656Y-93370712D01*
X90790978Y-93462814D01*
X90790979Y-93462814D01*
X90790982Y-93462816D01*
X90792140Y-93463356D01*
X90792800Y-93463937D01*
X90797125Y-93466605D01*
X90796669Y-93467343D01*
X90844580Y-93509527D01*
X90863734Y-93576720D01*
X90843520Y-93643601D01*
X90827420Y-93663420D01*
X90685334Y-93805506D01*
X90558583Y-93979963D01*
X90460684Y-94172098D01*
X90394045Y-94377190D01*
X90382831Y-94448000D01*
X91412603Y-94448000D01*
X91400860Y-94468339D01*
X91360312Y-94619667D01*
X91360312Y-94776333D01*
X91400860Y-94927661D01*
X91412603Y-94948000D01*
X90382831Y-94948000D01*
X90394045Y-95018809D01*
X90460684Y-95223901D01*
X90558583Y-95416036D01*
X90685337Y-95590496D01*
X90685337Y-95590497D01*
X90837814Y-95742974D01*
X91012275Y-95869728D01*
X91204410Y-95967627D01*
X91409502Y-96034265D01*
X91622492Y-96068000D01*
X91705312Y-96068000D01*
X91705312Y-95240709D01*
X91725651Y-95252452D01*
X91876979Y-95293000D01*
X92033645Y-95293000D01*
X92184973Y-95252452D01*
X92205312Y-95240709D01*
X92205312Y-96068000D01*
X92288132Y-96068000D01*
X92501121Y-96034265D01*
X92706213Y-95967627D01*
X92898348Y-95869728D01*
X93072808Y-95742974D01*
X93072809Y-95742974D01*
X93225286Y-95590497D01*
X93225286Y-95590496D01*
X93352040Y-95416036D01*
X93449939Y-95223901D01*
X93516578Y-95018809D01*
X93527793Y-94948000D01*
X92498021Y-94948000D01*
X92509764Y-94927661D01*
X92550312Y-94776333D01*
X92550312Y-94619667D01*
X92509764Y-94468339D01*
X92498021Y-94448000D01*
X93527793Y-94448000D01*
X93516578Y-94377190D01*
X93449939Y-94172098D01*
X93352040Y-93979963D01*
X93225286Y-93805503D01*
X93225286Y-93805502D01*
X93083204Y-93663420D01*
X93049719Y-93602097D01*
X93054703Y-93532405D01*
X93096575Y-93476472D01*
X93118489Y-93463353D01*
X93119635Y-93462817D01*
X93119646Y-93462814D01*
X93268968Y-93370712D01*
X93393024Y-93246656D01*
X93485126Y-93097334D01*
X93540311Y-92930797D01*
X93550812Y-92828009D01*
X93550811Y-91487992D01*
X93550579Y-91485725D01*
X93540311Y-91385203D01*
X93540310Y-91385200D01*
X93536004Y-91372206D01*
X93485126Y-91218666D01*
X93393024Y-91069344D01*
X93268968Y-90945288D01*
X93162480Y-90879606D01*
X93119648Y-90853187D01*
X93119643Y-90853185D01*
X93118174Y-90852698D01*
X92953109Y-90798001D01*
X92953107Y-90798000D01*
X92850322Y-90787500D01*
X91060310Y-90787500D01*
X91060293Y-90787501D01*
X90957515Y-90798000D01*
X90957512Y-90798001D01*
X90790980Y-90853185D01*
X90790975Y-90853187D01*
X90641654Y-90945289D01*
X90517601Y-91069342D01*
X90425499Y-91218663D01*
X90425498Y-91218666D01*
X90370313Y-91385203D01*
X90370313Y-91385204D01*
X90370312Y-91385204D01*
X90359812Y-91487983D01*
X82985637Y-91487983D01*
X82961009Y-91476499D01*
X82780009Y-91392097D01*
X82780005Y-91392096D01*
X82780001Y-91392094D01*
X82551759Y-91330938D01*
X82551749Y-91330936D01*
X82316347Y-91310341D01*
X82316345Y-91310341D01*
X82080942Y-91330936D01*
X82080932Y-91330938D01*
X81852690Y-91392094D01*
X81852681Y-91392098D01*
X81638517Y-91491964D01*
X81638515Y-91491965D01*
X81444943Y-91627505D01*
X81277854Y-91794594D01*
X81147920Y-91980160D01*
X81093343Y-92023784D01*
X81023844Y-92030977D01*
X80961490Y-91999455D01*
X80944770Y-91980159D01*
X80814839Y-91794597D01*
X80647747Y-91627506D01*
X80647740Y-91627501D01*
X80454179Y-91491967D01*
X80454175Y-91491965D01*
X80421008Y-91476499D01*
X80240008Y-91392097D01*
X80240004Y-91392096D01*
X80240000Y-91392094D01*
X80011758Y-91330938D01*
X80011748Y-91330936D01*
X79776346Y-91310341D01*
X79776344Y-91310341D01*
X79540941Y-91330936D01*
X79540931Y-91330938D01*
X79312689Y-91392094D01*
X79312680Y-91392098D01*
X79098516Y-91491964D01*
X79098514Y-91491965D01*
X78904942Y-91627505D01*
X78737850Y-91794597D01*
X78607920Y-91980158D01*
X78553343Y-92023783D01*
X78483845Y-92030977D01*
X78421490Y-91999454D01*
X78404770Y-91980158D01*
X78274839Y-91794597D01*
X78107747Y-91627506D01*
X78107740Y-91627501D01*
X77914179Y-91491967D01*
X77914175Y-91491965D01*
X77881008Y-91476499D01*
X77700008Y-91392097D01*
X77700004Y-91392096D01*
X77700000Y-91392094D01*
X77471758Y-91330938D01*
X77471748Y-91330936D01*
X77236346Y-91310341D01*
X77236344Y-91310341D01*
X77000941Y-91330936D01*
X77000931Y-91330938D01*
X76772689Y-91392094D01*
X76772680Y-91392098D01*
X76558516Y-91491964D01*
X76558514Y-91491965D01*
X76364942Y-91627505D01*
X76197850Y-91794597D01*
X76067920Y-91980158D01*
X76013343Y-92023783D01*
X75943845Y-92030977D01*
X75881490Y-91999454D01*
X75864770Y-91980158D01*
X75734839Y-91794597D01*
X75567747Y-91627506D01*
X75567740Y-91627501D01*
X75374179Y-91491967D01*
X75374175Y-91491965D01*
X75341008Y-91476499D01*
X75160008Y-91392097D01*
X75160004Y-91392096D01*
X75160000Y-91392094D01*
X74931758Y-91330938D01*
X74931748Y-91330936D01*
X74696346Y-91310341D01*
X74696344Y-91310341D01*
X74460941Y-91330936D01*
X74460931Y-91330938D01*
X74232689Y-91392094D01*
X74232680Y-91392098D01*
X74018516Y-91491964D01*
X74018514Y-91491965D01*
X73824942Y-91627505D01*
X73657850Y-91794597D01*
X73527920Y-91980158D01*
X73473343Y-92023783D01*
X73403845Y-92030977D01*
X73341490Y-91999454D01*
X73324770Y-91980158D01*
X73194839Y-91794597D01*
X73027747Y-91627506D01*
X73027740Y-91627501D01*
X72834179Y-91491967D01*
X72834175Y-91491965D01*
X72801008Y-91476499D01*
X72620008Y-91392097D01*
X72620004Y-91392096D01*
X72620000Y-91392094D01*
X72391758Y-91330938D01*
X72391748Y-91330936D01*
X72156346Y-91310341D01*
X72156344Y-91310341D01*
X71920941Y-91330936D01*
X71920931Y-91330938D01*
X71692689Y-91392094D01*
X71692680Y-91392098D01*
X71478516Y-91491964D01*
X71478514Y-91491965D01*
X71284942Y-91627505D01*
X71117853Y-91794594D01*
X70987919Y-91980160D01*
X70933342Y-92023784D01*
X70863843Y-92030977D01*
X70801489Y-91999455D01*
X70784769Y-91980159D01*
X70654838Y-91794597D01*
X70487746Y-91627506D01*
X70487739Y-91627501D01*
X70294178Y-91491967D01*
X70294174Y-91491965D01*
X70261007Y-91476499D01*
X70080007Y-91392097D01*
X70080003Y-91392096D01*
X70079999Y-91392094D01*
X69851757Y-91330938D01*
X69851747Y-91330936D01*
X69616345Y-91310341D01*
X69616343Y-91310341D01*
X69380940Y-91330936D01*
X69380930Y-91330938D01*
X69152688Y-91392094D01*
X69152679Y-91392098D01*
X68938515Y-91491964D01*
X68938513Y-91491965D01*
X68744941Y-91627505D01*
X68577849Y-91794597D01*
X68447614Y-91980594D01*
X68393037Y-92024219D01*
X68323539Y-92031413D01*
X68261184Y-91999890D01*
X68244464Y-91980594D01*
X68114458Y-91794926D01*
X68114453Y-91794920D01*
X67947427Y-91627894D01*
X67753923Y-91492399D01*
X67539837Y-91392570D01*
X67539831Y-91392567D01*
X67326345Y-91335364D01*
X67326345Y-92232988D01*
X67269338Y-92200075D01*
X67142171Y-92166000D01*
X67010519Y-92166000D01*
X66883352Y-92200075D01*
X66826345Y-92232988D01*
X66826345Y-91335364D01*
X66826344Y-91335364D01*
X66612858Y-91392567D01*
X66612852Y-91392570D01*
X66398767Y-91492399D01*
X66398765Y-91492400D01*
X66205271Y-91627886D01*
X66083210Y-91749947D01*
X66021887Y-91783431D01*
X65952195Y-91778447D01*
X65896262Y-91736575D01*
X65879347Y-91705598D01*
X65830142Y-91573671D01*
X65830138Y-91573664D01*
X65743892Y-91458455D01*
X65743889Y-91458452D01*
X65628680Y-91372206D01*
X65628673Y-91372202D01*
X65493827Y-91321908D01*
X65493828Y-91321908D01*
X65434228Y-91315501D01*
X65434226Y-91315500D01*
X65434218Y-91315500D01*
X65434209Y-91315500D01*
X63638474Y-91315500D01*
X63638468Y-91315501D01*
X63578861Y-91321908D01*
X63444016Y-91372202D01*
X63444009Y-91372206D01*
X63328800Y-91458452D01*
X63328797Y-91458455D01*
X63242551Y-91573664D01*
X63242547Y-91573671D01*
X63192253Y-91708517D01*
X63185846Y-91768116D01*
X63185845Y-91768135D01*
X57928377Y-91768135D01*
X57896817Y-91736575D01*
X57832913Y-91672671D01*
X57799430Y-91611351D01*
X57804414Y-91541659D01*
X57846285Y-91485725D01*
X57877261Y-91468810D01*
X58008677Y-91419796D01*
X58123892Y-91333546D01*
X58210142Y-91218331D01*
X58260437Y-91083483D01*
X58266846Y-91023873D01*
X58266846Y-90950500D01*
X58286531Y-90883461D01*
X58339335Y-90837706D01*
X58390846Y-90826500D01*
X58636342Y-90826500D01*
X58727386Y-90808389D01*
X58771674Y-90799580D01*
X58835415Y-90773177D01*
X58899153Y-90746777D01*
X58899154Y-90746776D01*
X58899157Y-90746775D01*
X59013889Y-90670114D01*
X59495184Y-90188819D01*
X59556507Y-90155334D01*
X59582865Y-90152500D01*
X61896190Y-90152500D01*
X61963229Y-90172185D01*
X61969075Y-90176182D01*
X62051611Y-90236148D01*
X62051616Y-90236151D01*
X62224538Y-90313142D01*
X62224543Y-90313144D01*
X62409700Y-90352500D01*
X62409701Y-90352500D01*
X62598990Y-90352500D01*
X62598992Y-90352500D01*
X62784149Y-90313144D01*
X62957076Y-90236151D01*
X63110217Y-90124888D01*
X63236879Y-89984216D01*
X63331525Y-89820284D01*
X63390020Y-89640256D01*
X63409806Y-89452000D01*
X63390020Y-89263744D01*
X63331525Y-89083716D01*
X63236879Y-88919784D01*
X63110217Y-88779112D01*
X63105247Y-88775501D01*
X62957080Y-88667851D01*
X62957075Y-88667848D01*
X62784153Y-88590857D01*
X62784148Y-88590855D01*
X62638347Y-88559865D01*
X62598992Y-88551500D01*
X62409700Y-88551500D01*
X62377243Y-88558398D01*
X62224543Y-88590855D01*
X62224538Y-88590857D01*
X62051616Y-88667848D01*
X62051611Y-88667851D01*
X61969075Y-88727818D01*
X61903269Y-88751298D01*
X61896190Y-88751500D01*
X59172350Y-88751500D01*
X59037023Y-88778418D01*
X59037013Y-88778421D01*
X58909538Y-88831222D01*
X58794800Y-88907887D01*
X58794799Y-88907888D01*
X58469982Y-89232706D01*
X58408659Y-89266191D01*
X58338967Y-89261207D01*
X58283034Y-89219335D01*
X58261624Y-89173541D01*
X58260436Y-89168514D01*
X58210143Y-89033671D01*
X58210139Y-89033664D01*
X58123893Y-88918455D01*
X58123890Y-88918452D01*
X58008681Y-88832206D01*
X58008674Y-88832202D01*
X57873828Y-88781908D01*
X57873829Y-88781908D01*
X57814229Y-88775501D01*
X57814227Y-88775500D01*
X57814219Y-88775500D01*
X57814210Y-88775500D01*
X56018475Y-88775500D01*
X56018469Y-88775501D01*
X55958862Y-88781908D01*
X55824017Y-88832202D01*
X55824015Y-88832203D01*
X55777258Y-88867206D01*
X55722915Y-88907888D01*
X55720657Y-88909578D01*
X55655193Y-88933995D01*
X55586920Y-88919144D01*
X55572035Y-88909578D01*
X55569777Y-88907888D01*
X55468677Y-88832204D01*
X55468676Y-88832203D01*
X55468674Y-88832202D01*
X55333828Y-88781908D01*
X55333829Y-88781908D01*
X55274229Y-88775501D01*
X55274227Y-88775500D01*
X55274219Y-88775500D01*
X55274210Y-88775500D01*
X53478475Y-88775500D01*
X53478469Y-88775501D01*
X53418862Y-88781908D01*
X53284017Y-88832202D01*
X53284010Y-88832206D01*
X53168801Y-88918452D01*
X53168798Y-88918455D01*
X53082552Y-89033664D01*
X53082548Y-89033671D01*
X53032254Y-89168517D01*
X53025847Y-89228116D01*
X53025846Y-89228135D01*
X53025846Y-91023870D01*
X53025847Y-91023876D01*
X53032254Y-91083483D01*
X53082548Y-91218328D01*
X53082552Y-91218335D01*
X53168798Y-91333544D01*
X53168801Y-91333547D01*
X53284010Y-91419793D01*
X53284017Y-91419797D01*
X53415427Y-91468810D01*
X53471361Y-91510681D01*
X53495778Y-91576145D01*
X53480926Y-91644418D01*
X53459776Y-91672673D01*
X53337849Y-91794600D01*
X53202311Y-91988169D01*
X53202310Y-91988171D01*
X53102444Y-92202335D01*
X53102440Y-92202344D01*
X53041284Y-92430586D01*
X53041282Y-92430596D01*
X53020687Y-92665999D01*
X43926846Y-92665999D01*
X43926846Y-89193740D01*
X43946531Y-89126701D01*
X43999335Y-89080946D01*
X44068493Y-89071002D01*
X44132049Y-89100027D01*
X44169823Y-89158805D01*
X44170621Y-89161647D01*
X44212912Y-89319483D01*
X44212916Y-89319492D01*
X44312745Y-89533578D01*
X44448240Y-89727082D01*
X44615263Y-89894105D01*
X44808767Y-90029600D01*
X45022853Y-90129429D01*
X45022862Y-90129433D01*
X45236346Y-90186634D01*
X45236346Y-89289012D01*
X45293353Y-89321925D01*
X45420520Y-89356000D01*
X45552172Y-89356000D01*
X45679339Y-89321925D01*
X45736346Y-89289012D01*
X45736346Y-90186633D01*
X45949829Y-90129433D01*
X45949838Y-90129429D01*
X46163924Y-90029600D01*
X46357428Y-89894105D01*
X46524451Y-89727082D01*
X46659946Y-89533578D01*
X46759775Y-89319492D01*
X46759778Y-89319486D01*
X46816982Y-89106000D01*
X45919358Y-89106000D01*
X45952271Y-89048993D01*
X45986346Y-88921826D01*
X45986346Y-88790174D01*
X45952271Y-88663007D01*
X45919358Y-88606000D01*
X46816982Y-88606000D01*
X46816981Y-88605999D01*
X46759778Y-88392513D01*
X46759775Y-88392507D01*
X46659946Y-88178422D01*
X46659945Y-88178420D01*
X46524459Y-87984926D01*
X46524454Y-87984920D01*
X46357424Y-87817890D01*
X46171751Y-87687879D01*
X46128126Y-87633302D01*
X46120934Y-87563804D01*
X46152456Y-87501449D01*
X46171752Y-87484730D01*
X46357747Y-87354495D01*
X46524841Y-87187401D01*
X46660381Y-86993830D01*
X46760249Y-86779663D01*
X46821409Y-86551408D01*
X46842005Y-86316000D01*
X46821409Y-86080592D01*
X46760249Y-85852337D01*
X46660381Y-85638171D01*
X46578338Y-85521000D01*
X46524840Y-85444597D01*
X46357748Y-85277506D01*
X46357742Y-85277501D01*
X46172188Y-85147575D01*
X46128563Y-85092998D01*
X46121369Y-85023500D01*
X46152892Y-84961145D01*
X46172188Y-84944425D01*
X46204528Y-84921780D01*
X46357747Y-84814495D01*
X46524841Y-84647401D01*
X46607482Y-84529376D01*
X46662059Y-84485752D01*
X46709057Y-84476500D01*
X47938827Y-84476500D01*
X48005866Y-84496185D01*
X48026508Y-84512819D01*
X50378797Y-86865109D01*
X50378800Y-86865112D01*
X50427271Y-86897499D01*
X50493538Y-86941777D01*
X50619207Y-86993830D01*
X50621018Y-86994580D01*
X50621022Y-86994580D01*
X50621023Y-86994581D01*
X50756350Y-87021500D01*
X50756353Y-87021500D01*
X53135343Y-87021500D01*
X53226387Y-87003389D01*
X53270675Y-86994580D01*
X53390626Y-86944895D01*
X53398154Y-86941777D01*
X53398155Y-86941776D01*
X53398158Y-86941775D01*
X53512890Y-86865114D01*
X53994354Y-86383648D01*
X54055674Y-86350166D01*
X54114125Y-86351557D01*
X54130939Y-86356063D01*
X54301666Y-86371000D01*
X54366346Y-86376659D01*
X54366347Y-86376659D01*
X54366348Y-86376659D01*
X54431028Y-86371000D01*
X54601755Y-86356063D01*
X54830010Y-86294903D01*
X55044177Y-86195035D01*
X55237748Y-86059495D01*
X55404842Y-85892401D01*
X55534771Y-85706842D01*
X55589348Y-85663218D01*
X55658846Y-85656024D01*
X55721201Y-85687547D01*
X55737921Y-85706842D01*
X55867851Y-85892401D01*
X56034945Y-86059495D01*
X56087794Y-86096500D01*
X56228511Y-86195032D01*
X56228513Y-86195033D01*
X56228516Y-86195035D01*
X56442683Y-86294903D01*
X56670938Y-86356063D01*
X56841665Y-86371000D01*
X56906345Y-86376659D01*
X56906346Y-86376659D01*
X56906347Y-86376659D01*
X56971027Y-86371000D01*
X57141754Y-86356063D01*
X57370009Y-86294903D01*
X57584176Y-86195035D01*
X57777747Y-86059495D01*
X57900063Y-85937178D01*
X57961382Y-85903696D01*
X58031074Y-85908680D01*
X58087008Y-85950551D01*
X58103923Y-85981528D01*
X58152992Y-86113088D01*
X58152995Y-86113093D01*
X58239155Y-86228187D01*
X58239158Y-86228190D01*
X58354252Y-86314350D01*
X58354259Y-86314354D01*
X58488966Y-86364596D01*
X58488973Y-86364598D01*
X58548501Y-86370999D01*
X58548518Y-86371000D01*
X59196346Y-86371000D01*
X59196346Y-85454012D01*
X59253353Y-85486925D01*
X59380520Y-85521000D01*
X59512172Y-85521000D01*
X59639339Y-85486925D01*
X59696346Y-85454012D01*
X59696346Y-86371000D01*
X60344174Y-86371000D01*
X60344190Y-86370999D01*
X60403718Y-86364598D01*
X60403725Y-86364596D01*
X60538432Y-86314354D01*
X60538439Y-86314350D01*
X60653533Y-86228190D01*
X60653536Y-86228187D01*
X60739696Y-86113093D01*
X60739700Y-86113086D01*
X60789942Y-85978379D01*
X60789944Y-85978372D01*
X60796345Y-85918844D01*
X60796346Y-85918827D01*
X60796346Y-85271000D01*
X59879358Y-85271000D01*
X59912271Y-85213993D01*
X59946346Y-85086826D01*
X59946346Y-84955174D01*
X59912271Y-84828007D01*
X59879358Y-84771000D01*
X60796346Y-84771000D01*
X60796346Y-84123172D01*
X60796345Y-84123155D01*
X60789944Y-84063627D01*
X60789942Y-84063620D01*
X60739700Y-83928913D01*
X60739696Y-83928906D01*
X60653536Y-83813812D01*
X60653533Y-83813809D01*
X60538439Y-83727649D01*
X60538432Y-83727645D01*
X60403725Y-83677403D01*
X60403718Y-83677401D01*
X60344190Y-83671000D01*
X59696346Y-83671000D01*
X59696346Y-84587988D01*
X59639339Y-84555075D01*
X59512172Y-84521000D01*
X59380520Y-84521000D01*
X59253353Y-84555075D01*
X59196346Y-84587988D01*
X59196346Y-83671000D01*
X59191486Y-83666140D01*
X59158001Y-83604817D01*
X59162985Y-83535125D01*
X59191483Y-83490781D01*
X63949985Y-78732282D01*
X63949986Y-78732279D01*
X63957046Y-78725220D01*
X63957051Y-78725213D01*
X64473447Y-78208819D01*
X64534770Y-78175334D01*
X64561128Y-78172500D01*
X78604889Y-78172500D01*
X78734928Y-78146632D01*
X78798181Y-78134051D01*
X78980260Y-78058632D01*
X79144128Y-77949139D01*
X79283485Y-77809782D01*
X79392978Y-77645914D01*
X79468397Y-77463835D01*
X79506846Y-77270541D01*
X79506846Y-77073459D01*
X79506846Y-77073456D01*
X79468398Y-76880170D01*
X79468397Y-76880169D01*
X79468397Y-76880165D01*
X79419031Y-76760983D01*
X79390852Y-76692952D01*
X79383383Y-76623483D01*
X79414658Y-76561004D01*
X79474747Y-76525352D01*
X79505413Y-76521500D01*
X80580564Y-76521500D01*
X80647603Y-76541185D01*
G37*
%TD.AperFunction*%
%TA.AperFunction,Conductor*%
G36*
X88200421Y-106951007D02*
G01*
X88166346Y-107078174D01*
X88166346Y-107209826D01*
X88200421Y-107336993D01*
X88233334Y-107394000D01*
X86559358Y-107394000D01*
X86592271Y-107336993D01*
X86626346Y-107209826D01*
X86626346Y-107078174D01*
X86592271Y-106951007D01*
X86559358Y-106894000D01*
X88233334Y-106894000D01*
X88200421Y-106951007D01*
G37*
%TD.AperFunction*%
%TA.AperFunction,Conductor*%
G36*
X90740421Y-106951007D02*
G01*
X90706346Y-107078174D01*
X90706346Y-107209826D01*
X90740421Y-107336993D01*
X90773334Y-107394000D01*
X89099358Y-107394000D01*
X89132271Y-107336993D01*
X89166346Y-107209826D01*
X89166346Y-107078174D01*
X89132271Y-106951007D01*
X89099358Y-106894000D01*
X90773334Y-106894000D01*
X90740421Y-106951007D01*
G37*
%TD.AperFunction*%
%TA.AperFunction,Conductor*%
G36*
X93280421Y-106951007D02*
G01*
X93246346Y-107078174D01*
X93246346Y-107209826D01*
X93280421Y-107336993D01*
X93313334Y-107394000D01*
X91639358Y-107394000D01*
X91672271Y-107336993D01*
X91706346Y-107209826D01*
X91706346Y-107078174D01*
X91672271Y-106951007D01*
X91639358Y-106894000D01*
X93313334Y-106894000D01*
X93280421Y-106951007D01*
G37*
%TD.AperFunction*%
%TA.AperFunction,Conductor*%
G36*
X98429043Y-69516618D02*
G01*
X98813107Y-69533389D01*
X98823846Y-69534329D01*
X99202315Y-69584159D01*
X99212945Y-69586034D01*
X99585608Y-69668655D01*
X99596030Y-69671446D01*
X99960084Y-69786235D01*
X99970250Y-69789935D01*
X100322903Y-69936012D01*
X100332707Y-69940584D01*
X100671280Y-70116836D01*
X100680627Y-70122232D01*
X101002569Y-70327336D01*
X101011421Y-70333534D01*
X101314246Y-70565903D01*
X101322521Y-70572846D01*
X101498882Y-70734452D01*
X101603950Y-70830730D01*
X101611599Y-70838379D01*
X101869474Y-71119803D01*
X101876427Y-71128090D01*
X102108785Y-71430906D01*
X102114990Y-71439767D01*
X102320082Y-71761701D01*
X102325490Y-71771069D01*
X102501737Y-72109638D01*
X102506302Y-72119426D01*
X102652380Y-72472093D01*
X102656077Y-72482249D01*
X102770856Y-72846284D01*
X102773656Y-72856733D01*
X102856272Y-73229393D01*
X102858150Y-73240046D01*
X102907971Y-73618475D01*
X102908914Y-73629249D01*
X102917706Y-73830629D01*
X102925728Y-74014342D01*
X102925846Y-74019751D01*
X102925846Y-89586951D01*
X102906161Y-89653990D01*
X102853357Y-89699745D01*
X102784199Y-89709689D01*
X102720643Y-89680664D01*
X102714165Y-89674632D01*
X102673487Y-89633954D01*
X102487080Y-89503432D01*
X102487078Y-89503431D01*
X102280843Y-89407261D01*
X102280834Y-89407258D01*
X102061043Y-89348366D01*
X102061039Y-89348365D01*
X102061038Y-89348365D01*
X102061037Y-89348364D01*
X102061032Y-89348364D01*
X101834348Y-89328532D01*
X101834344Y-89328532D01*
X101607659Y-89348364D01*
X101607648Y-89348366D01*
X101387857Y-89407258D01*
X101387848Y-89407261D01*
X101181613Y-89503431D01*
X101181611Y-89503432D01*
X100995204Y-89633954D01*
X100946527Y-89682632D01*
X100885204Y-89716117D01*
X100815512Y-89711133D01*
X100759579Y-89669261D01*
X100735162Y-89603797D01*
X100734846Y-89594951D01*
X100734846Y-87221778D01*
X100712995Y-87083818D01*
X100700361Y-87004049D01*
X100635974Y-86805883D01*
X100632242Y-86794396D01*
X100632241Y-86794393D01*
X100569460Y-86671181D01*
X100532161Y-86597978D01*
X100498326Y-86551408D01*
X100402593Y-86419641D01*
X100402589Y-86419636D01*
X100246710Y-86263757D01*
X99875349Y-85892396D01*
X99468789Y-85485837D01*
X99435305Y-85424515D01*
X99440289Y-85354824D01*
X99468790Y-85310476D01*
X99631692Y-85147575D01*
X99857486Y-84921781D01*
X99966978Y-84757914D01*
X100042398Y-84575835D01*
X100078045Y-84396623D01*
X100080846Y-84382541D01*
X100080846Y-71993459D01*
X100080846Y-71993456D01*
X100042398Y-71800170D01*
X100042397Y-71800169D01*
X100042397Y-71800165D01*
X100026465Y-71761701D01*
X99966981Y-71618092D01*
X99966974Y-71618079D01*
X99857486Y-71454219D01*
X99834160Y-71430893D01*
X99718128Y-71314861D01*
X99718127Y-71314860D01*
X99102554Y-70699288D01*
X99102552Y-70699285D01*
X99102552Y-70699286D01*
X99095485Y-70692219D01*
X99095485Y-70692218D01*
X98956128Y-70552861D01*
X98956127Y-70552860D01*
X98956126Y-70552859D01*
X98792266Y-70443371D01*
X98792257Y-70443366D01*
X98719661Y-70413296D01*
X98663511Y-70390038D01*
X98610182Y-70367949D01*
X98610178Y-70367948D01*
X98610174Y-70367946D01*
X98513534Y-70348724D01*
X98416890Y-70329500D01*
X98416887Y-70329500D01*
X97830810Y-70329500D01*
X97763771Y-70309815D01*
X97746825Y-70296728D01*
X97746140Y-70296098D01*
X97746130Y-70296087D01*
X97606828Y-70187664D01*
X97562974Y-70153531D01*
X97358850Y-70043064D01*
X97358841Y-70043061D01*
X97139330Y-69967702D01*
X96948796Y-69935908D01*
X96910395Y-69929500D01*
X96678297Y-69929500D01*
X96639896Y-69935908D01*
X96449361Y-69967702D01*
X96229850Y-70043061D01*
X96229841Y-70043064D01*
X96025717Y-70153531D01*
X96025711Y-70153535D01*
X95842568Y-70296081D01*
X95842565Y-70296084D01*
X95842562Y-70296086D01*
X95842562Y-70296087D01*
X95813799Y-70327332D01*
X95685362Y-70466852D01*
X95558421Y-70661151D01*
X95465188Y-70873699D01*
X95408212Y-71098691D01*
X95408210Y-71098702D01*
X95389046Y-71329993D01*
X95389046Y-71330006D01*
X95408210Y-71561297D01*
X95408212Y-71561308D01*
X95465188Y-71786300D01*
X95558421Y-71998848D01*
X95685362Y-72193147D01*
X95685365Y-72193151D01*
X95685367Y-72193153D01*
X95842562Y-72363913D01*
X95842565Y-72363915D01*
X95842568Y-72363918D01*
X96025711Y-72506464D01*
X96025717Y-72506468D01*
X96025720Y-72506470D01*
X96229843Y-72616936D01*
X96343833Y-72656068D01*
X96449361Y-72692297D01*
X96449363Y-72692297D01*
X96449365Y-72692298D01*
X96678297Y-72730500D01*
X96678298Y-72730500D01*
X96910394Y-72730500D01*
X96910395Y-72730500D01*
X97139327Y-72692298D01*
X97358849Y-72616936D01*
X97562972Y-72506470D01*
X97746130Y-72363913D01*
X97746146Y-72363895D01*
X97746825Y-72363272D01*
X97747173Y-72363100D01*
X97750176Y-72360763D01*
X97750656Y-72361380D01*
X97809479Y-72332348D01*
X97830810Y-72330500D01*
X97852564Y-72330500D01*
X97919603Y-72350185D01*
X97940245Y-72366819D01*
X98043527Y-72470101D01*
X98077012Y-72531424D01*
X98079846Y-72557782D01*
X98079846Y-83818217D01*
X98060161Y-83885256D01*
X98043527Y-83905898D01*
X97739246Y-84210179D01*
X97677923Y-84243664D01*
X97651565Y-84246498D01*
X97534012Y-84246498D01*
X97533988Y-84246499D01*
X97184475Y-84246499D01*
X97117436Y-84226814D01*
X97071681Y-84174010D01*
X97061737Y-84104852D01*
X97090762Y-84041296D01*
X97096794Y-84034818D01*
X97210289Y-83921322D01*
X97210290Y-83921321D01*
X97325941Y-83762143D01*
X97415264Y-83586837D01*
X97476064Y-83399716D01*
X97482830Y-83357000D01*
X96289858Y-83357000D01*
X96322771Y-83299993D01*
X96356846Y-83172826D01*
X96356846Y-83041174D01*
X96322771Y-82914007D01*
X96289858Y-82857000D01*
X97482830Y-82857000D01*
X97476064Y-82814283D01*
X97415264Y-82627162D01*
X97325941Y-82451856D01*
X97210290Y-82292678D01*
X97071168Y-82153556D01*
X96917374Y-82041817D01*
X96874709Y-81986487D01*
X96868730Y-81916873D01*
X96901336Y-81855078D01*
X96962175Y-81820721D01*
X96990259Y-81817499D01*
X97054718Y-81817499D01*
X97114329Y-81811091D01*
X97249177Y-81760796D01*
X97364392Y-81674546D01*
X97450642Y-81559331D01*
X97500937Y-81424483D01*
X97507346Y-81364873D01*
X97507345Y-79769128D01*
X97500937Y-79709517D01*
X97496483Y-79697576D01*
X97450643Y-79574671D01*
X97450639Y-79574664D01*
X97364393Y-79459455D01*
X97364390Y-79459452D01*
X97249181Y-79373206D01*
X97249174Y-79373202D01*
X97114328Y-79322908D01*
X97114329Y-79322908D01*
X97054729Y-79316501D01*
X97054727Y-79316500D01*
X97054719Y-79316500D01*
X97054710Y-79316500D01*
X94658975Y-79316500D01*
X94658969Y-79316501D01*
X94599362Y-79322908D01*
X94464517Y-79373202D01*
X94464510Y-79373206D01*
X94349301Y-79459452D01*
X94349298Y-79459455D01*
X94263052Y-79574664D01*
X94263048Y-79574671D01*
X94212754Y-79709517D01*
X94207561Y-79757826D01*
X94206347Y-79769123D01*
X94206346Y-79769135D01*
X94206346Y-81364870D01*
X94206347Y-81364876D01*
X94212754Y-81424483D01*
X94263048Y-81559328D01*
X94263052Y-81559335D01*
X94349298Y-81674544D01*
X94349301Y-81674547D01*
X94464510Y-81760793D01*
X94464517Y-81760797D01*
X94599363Y-81811091D01*
X94599362Y-81811091D01*
X94606290Y-81811835D01*
X94658973Y-81817500D01*
X94723431Y-81817499D01*
X94790468Y-81837183D01*
X94836224Y-81889986D01*
X94846168Y-81959144D01*
X94817144Y-82022700D01*
X94796317Y-82041816D01*
X94642526Y-82153553D01*
X94503401Y-82292678D01*
X94387750Y-82451856D01*
X94298427Y-82627162D01*
X94237627Y-82814283D01*
X94230862Y-82857000D01*
X95423834Y-82857000D01*
X95390921Y-82914007D01*
X95356846Y-83041174D01*
X95356846Y-83172826D01*
X95390921Y-83299993D01*
X95423834Y-83357000D01*
X94230862Y-83357000D01*
X94237627Y-83399716D01*
X94298427Y-83586837D01*
X94387750Y-83762143D01*
X94503401Y-83921321D01*
X94642524Y-84060444D01*
X94801704Y-84176097D01*
X94978608Y-84266233D01*
X95029405Y-84314207D01*
X95046200Y-84382028D01*
X95023663Y-84448163D01*
X94978609Y-84487203D01*
X94809703Y-84573265D01*
X94741034Y-84586161D01*
X94676293Y-84559885D01*
X94665727Y-84550461D01*
X91987824Y-81872558D01*
X91987804Y-81872536D01*
X91844130Y-81728862D01*
X91844126Y-81728859D01*
X91680262Y-81619368D01*
X91535318Y-81559331D01*
X91535316Y-81559330D01*
X91498182Y-81543948D01*
X91498174Y-81543946D01*
X91401533Y-81524723D01*
X91304889Y-81505499D01*
X91304886Y-81505499D01*
X90096245Y-81505499D01*
X90029206Y-81485814D01*
X89983451Y-81433010D01*
X89973507Y-81363852D01*
X90002532Y-81300296D01*
X90008564Y-81293818D01*
X90096836Y-81205545D01*
X90096846Y-81205535D01*
X90258690Y-80989337D01*
X90388118Y-80752307D01*
X90482496Y-80499270D01*
X90539903Y-80235377D01*
X90559169Y-79966000D01*
X90539903Y-79696623D01*
X90539876Y-79696500D01*
X90496914Y-79499007D01*
X90482496Y-79432730D01*
X90388118Y-79179693D01*
X90377181Y-79159664D01*
X90258693Y-78942668D01*
X90258688Y-78942660D01*
X90096852Y-78726472D01*
X90096836Y-78726454D01*
X89905891Y-78535509D01*
X89905873Y-78535493D01*
X89689685Y-78373657D01*
X89689677Y-78373652D01*
X89452658Y-78244230D01*
X89452654Y-78244228D01*
X89313120Y-78192185D01*
X89199616Y-78149850D01*
X89199612Y-78149849D01*
X89199609Y-78149848D01*
X88935728Y-78092443D01*
X88666347Y-78073177D01*
X88666345Y-78073177D01*
X88396963Y-78092443D01*
X88133082Y-78149848D01*
X88133077Y-78149849D01*
X88133076Y-78149850D01*
X88072349Y-78172500D01*
X87880037Y-78244228D01*
X87880033Y-78244230D01*
X87643014Y-78373652D01*
X87643006Y-78373657D01*
X87426818Y-78535493D01*
X87426800Y-78535509D01*
X87235855Y-78726454D01*
X87235839Y-78726472D01*
X87074003Y-78942660D01*
X87073998Y-78942668D01*
X86944576Y-79179687D01*
X86944574Y-79179691D01*
X86850194Y-79432735D01*
X86813205Y-79602769D01*
X86779720Y-79664092D01*
X86718396Y-79697576D01*
X86648705Y-79692592D01*
X86604358Y-79664091D01*
X81830555Y-74890289D01*
X81830552Y-74890285D01*
X81830552Y-74890286D01*
X81823485Y-74883219D01*
X81823485Y-74883218D01*
X81684128Y-74743861D01*
X81684127Y-74743860D01*
X81684126Y-74743859D01*
X81520266Y-74634371D01*
X81520257Y-74634366D01*
X81447661Y-74604296D01*
X81391511Y-74581038D01*
X81338182Y-74558949D01*
X81338178Y-74558948D01*
X81338174Y-74558946D01*
X81241534Y-74539724D01*
X81144890Y-74520500D01*
X81144887Y-74520500D01*
X48766021Y-74520500D01*
X48766001Y-74520499D01*
X48759887Y-74520499D01*
X48562806Y-74520499D01*
X48562803Y-74520499D01*
X48369518Y-74558946D01*
X48369510Y-74558948D01*
X48187434Y-74634366D01*
X48187425Y-74634371D01*
X48023565Y-74743859D01*
X48023561Y-74743862D01*
X47648245Y-75119181D01*
X47586922Y-75152666D01*
X47560564Y-75155500D01*
X46900487Y-75155500D01*
X46833448Y-75135815D01*
X46787693Y-75083011D01*
X46784315Y-75074859D01*
X46780142Y-75063669D01*
X46780139Y-75063665D01*
X46780139Y-75063664D01*
X46693893Y-74948455D01*
X46693890Y-74948452D01*
X46578681Y-74862206D01*
X46578674Y-74862202D01*
X46443828Y-74811908D01*
X46443829Y-74811908D01*
X46384229Y-74805501D01*
X46384227Y-74805500D01*
X46384219Y-74805500D01*
X46384210Y-74805500D01*
X44588475Y-74805500D01*
X44588469Y-74805501D01*
X44528862Y-74811908D01*
X44394017Y-74862202D01*
X44394010Y-74862206D01*
X44278801Y-74948452D01*
X44278798Y-74948455D01*
X44192552Y-75063664D01*
X44192548Y-75063671D01*
X44167028Y-75132096D01*
X44125157Y-75188030D01*
X44059693Y-75212447D01*
X43991420Y-75197595D01*
X43942014Y-75148190D01*
X43926846Y-75088763D01*
X43926846Y-74018706D01*
X43926964Y-74013297D01*
X43934939Y-73830635D01*
X86778346Y-73830635D01*
X86778346Y-76701370D01*
X86778347Y-76701376D01*
X86784754Y-76760983D01*
X86835048Y-76895828D01*
X86835052Y-76895835D01*
X86921298Y-77011044D01*
X86921301Y-77011047D01*
X87036510Y-77097293D01*
X87036517Y-77097297D01*
X87171363Y-77147591D01*
X87171362Y-77147591D01*
X87178290Y-77148335D01*
X87230973Y-77154000D01*
X90101718Y-77153999D01*
X90161329Y-77147591D01*
X90296177Y-77097296D01*
X90411392Y-77011046D01*
X90497642Y-76895831D01*
X90547937Y-76760983D01*
X90554346Y-76701373D01*
X90554345Y-73830628D01*
X90547937Y-73771017D01*
X90497642Y-73636169D01*
X90497641Y-73636168D01*
X90497639Y-73636164D01*
X90411393Y-73520955D01*
X90411390Y-73520952D01*
X90296181Y-73434706D01*
X90296174Y-73434702D01*
X90161328Y-73384408D01*
X90161329Y-73384408D01*
X90101729Y-73378001D01*
X90101727Y-73378000D01*
X90101719Y-73378000D01*
X90101710Y-73378000D01*
X87230975Y-73378000D01*
X87230969Y-73378001D01*
X87171362Y-73384408D01*
X87036517Y-73434702D01*
X87036510Y-73434706D01*
X86921301Y-73520952D01*
X86921298Y-73520955D01*
X86835052Y-73636164D01*
X86835048Y-73636171D01*
X86784754Y-73771017D01*
X86782875Y-73788499D01*
X86778347Y-73830623D01*
X86778346Y-73830635D01*
X43934939Y-73830635D01*
X43934939Y-73830629D01*
X43943732Y-73629226D01*
X43944672Y-73618495D01*
X43994498Y-73240025D01*
X43996371Y-73229405D01*
X44078995Y-72856708D01*
X44081786Y-72846294D01*
X44196575Y-72482227D01*
X44200263Y-72472095D01*
X44346349Y-72119411D01*
X44350907Y-72109637D01*
X44527168Y-71771044D01*
X44532563Y-71761699D01*
X44737671Y-71439743D01*
X44743861Y-71430904D01*
X44976243Y-71128057D01*
X44983167Y-71119805D01*
X45052506Y-71044135D01*
X54399846Y-71044135D01*
X54399846Y-73139870D01*
X54399847Y-73139876D01*
X54406254Y-73199483D01*
X54456548Y-73334328D01*
X54456552Y-73334335D01*
X54542798Y-73449544D01*
X54542801Y-73449547D01*
X54658010Y-73535793D01*
X54658017Y-73535797D01*
X54792863Y-73586091D01*
X54792862Y-73586091D01*
X54799790Y-73586835D01*
X54852473Y-73592500D01*
X56948218Y-73592499D01*
X57007829Y-73586091D01*
X57142677Y-73535796D01*
X57257892Y-73449546D01*
X57344142Y-73334331D01*
X57394437Y-73199483D01*
X57400846Y-73139873D01*
X57400845Y-71044128D01*
X57394437Y-70984517D01*
X57344142Y-70849669D01*
X57344141Y-70849668D01*
X57344139Y-70849664D01*
X57257893Y-70734455D01*
X57257890Y-70734452D01*
X57142681Y-70648206D01*
X57142674Y-70648202D01*
X57007828Y-70597908D01*
X57007829Y-70597908D01*
X56948229Y-70591501D01*
X56948227Y-70591500D01*
X56948219Y-70591500D01*
X56948210Y-70591500D01*
X54852475Y-70591500D01*
X54852469Y-70591501D01*
X54792862Y-70597908D01*
X54658017Y-70648202D01*
X54658010Y-70648206D01*
X54542801Y-70734452D01*
X54542798Y-70734455D01*
X54456552Y-70849664D01*
X54456548Y-70849671D01*
X54406254Y-70984517D01*
X54399847Y-71044116D01*
X54399847Y-71044123D01*
X54399846Y-71044135D01*
X45052506Y-71044135D01*
X45241083Y-70838338D01*
X45248698Y-70830724D01*
X45530137Y-70572832D01*
X45538406Y-70565894D01*
X45777884Y-70382135D01*
X87773846Y-70382135D01*
X87773846Y-72277870D01*
X87773847Y-72277876D01*
X87780254Y-72337483D01*
X87830548Y-72472328D01*
X87830552Y-72472335D01*
X87916798Y-72587544D01*
X87916801Y-72587547D01*
X88032010Y-72673793D01*
X88032017Y-72673797D01*
X88166863Y-72724091D01*
X88166862Y-72724091D01*
X88173790Y-72724835D01*
X88226473Y-72730500D01*
X90122218Y-72730499D01*
X90181829Y-72724091D01*
X90316677Y-72673796D01*
X90431892Y-72587546D01*
X90518142Y-72472331D01*
X90568437Y-72337483D01*
X90574846Y-72277873D01*
X90574845Y-70382128D01*
X90568437Y-70322517D01*
X90563699Y-70309815D01*
X90518143Y-70187671D01*
X90518139Y-70187664D01*
X90431893Y-70072455D01*
X90431890Y-70072452D01*
X90316681Y-69986206D01*
X90316674Y-69986202D01*
X90181828Y-69935908D01*
X90181829Y-69935908D01*
X90122229Y-69929501D01*
X90122227Y-69929500D01*
X90122219Y-69929500D01*
X90122210Y-69929500D01*
X88226475Y-69929500D01*
X88226469Y-69929501D01*
X88166862Y-69935908D01*
X88032017Y-69986202D01*
X88032010Y-69986206D01*
X87916801Y-70072452D01*
X87916798Y-70072455D01*
X87830552Y-70187664D01*
X87830548Y-70187671D01*
X87780254Y-70322517D01*
X87775370Y-70367948D01*
X87773847Y-70382123D01*
X87773846Y-70382135D01*
X45777884Y-70382135D01*
X45841256Y-70333508D01*
X45850099Y-70327317D01*
X46172049Y-70122212D01*
X46181370Y-70116830D01*
X46519984Y-69940559D01*
X46529758Y-69936001D01*
X46882434Y-69789917D01*
X46892580Y-69786224D01*
X47256631Y-69671440D01*
X47267060Y-69668645D01*
X47639748Y-69586021D01*
X47650374Y-69584148D01*
X48028843Y-69534321D01*
X48039572Y-69533382D01*
X48423551Y-69516617D01*
X48428960Y-69516500D01*
X48492239Y-69516500D01*
X98360449Y-69516500D01*
X98423633Y-69516500D01*
X98429043Y-69516618D01*
G37*
%TD.AperFunction*%
%TA.AperFunction,Conductor*%
G36*
X55133900Y-78192185D02*
G01*
X55179655Y-78244989D01*
X55189599Y-78314147D01*
X55160574Y-78377703D01*
X55125878Y-78405555D01*
X55077116Y-78431943D01*
X55030289Y-78468389D01*
X55770937Y-79209037D01*
X55707353Y-79226075D01*
X55593339Y-79291901D01*
X55500247Y-79384993D01*
X55434421Y-79499007D01*
X55417383Y-79562591D01*
X54676909Y-78822117D01*
X54576613Y-78975633D01*
X54576611Y-78975637D01*
X54476758Y-79203282D01*
X54415733Y-79444261D01*
X54415731Y-79444270D01*
X54395205Y-79691994D01*
X54395205Y-79692005D01*
X54415731Y-79939729D01*
X54415733Y-79939738D01*
X54476758Y-80180717D01*
X54576613Y-80408367D01*
X54676908Y-80561881D01*
X55417383Y-79821408D01*
X55434421Y-79884993D01*
X55500247Y-79999007D01*
X55593339Y-80092099D01*
X55707353Y-80157925D01*
X55770937Y-80174962D01*
X55030289Y-80915609D01*
X55077114Y-80952055D01*
X55077117Y-80952057D01*
X55295731Y-81070364D01*
X55295742Y-81070369D01*
X55530852Y-81151083D01*
X55776053Y-81192000D01*
X56024639Y-81192000D01*
X56269839Y-81151083D01*
X56504949Y-81070369D01*
X56504960Y-81070364D01*
X56723576Y-80952056D01*
X56723582Y-80952051D01*
X56770401Y-80915610D01*
X56770402Y-80915609D01*
X56029754Y-80174962D01*
X56093339Y-80157925D01*
X56207353Y-80092099D01*
X56300445Y-79999007D01*
X56366271Y-79884993D01*
X56383308Y-79821408D01*
X57123781Y-80561882D01*
X57224079Y-80408364D01*
X57323933Y-80180717D01*
X57384958Y-79939738D01*
X57384960Y-79939729D01*
X57405487Y-79692005D01*
X57405487Y-79691994D01*
X57384960Y-79444270D01*
X57384958Y-79444261D01*
X57323933Y-79203282D01*
X57224078Y-78975632D01*
X57123781Y-78822116D01*
X56383308Y-79562590D01*
X56366271Y-79499007D01*
X56300445Y-79384993D01*
X56207353Y-79291901D01*
X56093339Y-79226075D01*
X56029755Y-79209037D01*
X56770401Y-78468389D01*
X56770401Y-78468388D01*
X56723582Y-78431947D01*
X56723577Y-78431944D01*
X56674814Y-78405555D01*
X56625223Y-78356336D01*
X56610115Y-78288119D01*
X56634285Y-78222563D01*
X56690061Y-78180482D01*
X56733831Y-78172500D01*
X61380563Y-78172500D01*
X61447602Y-78192185D01*
X61493357Y-78244989D01*
X61503301Y-78314147D01*
X61474276Y-78377703D01*
X61468244Y-78384181D01*
X56268566Y-83583859D01*
X56268564Y-83583861D01*
X56230772Y-83621653D01*
X56129205Y-83723219D01*
X56019717Y-83887080D01*
X56019710Y-83887093D01*
X55976190Y-83992163D01*
X55976189Y-83992165D01*
X55950911Y-84053189D01*
X55924034Y-84093415D01*
X55867849Y-84149601D01*
X55737921Y-84335158D01*
X55683344Y-84378782D01*
X55613845Y-84385975D01*
X55551491Y-84354453D01*
X55534771Y-84335157D01*
X55404841Y-84149597D01*
X55237749Y-83982506D01*
X55237742Y-83982501D01*
X55044181Y-83846967D01*
X55044177Y-83846965D01*
X54973074Y-83813809D01*
X54830010Y-83747097D01*
X54830006Y-83747096D01*
X54830002Y-83747094D01*
X54601760Y-83685938D01*
X54601750Y-83685936D01*
X54366348Y-83665341D01*
X54366346Y-83665341D01*
X54130943Y-83685936D01*
X54130933Y-83685938D01*
X53902691Y-83747094D01*
X53902682Y-83747098D01*
X53688518Y-83846964D01*
X53688516Y-83846965D01*
X53494944Y-83982505D01*
X53327855Y-84149594D01*
X53197921Y-84335160D01*
X53143344Y-84378784D01*
X53073845Y-84385977D01*
X53011491Y-84354455D01*
X52994771Y-84335159D01*
X52864840Y-84149597D01*
X52697748Y-83982506D01*
X52697741Y-83982501D01*
X52504180Y-83846967D01*
X52504176Y-83846965D01*
X52433073Y-83813809D01*
X52290009Y-83747097D01*
X52290005Y-83747096D01*
X52290001Y-83747094D01*
X52061759Y-83685938D01*
X52061749Y-83685936D01*
X51826347Y-83665341D01*
X51826345Y-83665341D01*
X51590942Y-83685936D01*
X51590932Y-83685938D01*
X51362690Y-83747094D01*
X51362681Y-83747098D01*
X51148517Y-83846964D01*
X51148515Y-83846965D01*
X50954943Y-83982505D01*
X50787854Y-84149595D01*
X50787847Y-84149604D01*
X50780354Y-84160305D01*
X50725776Y-84203929D01*
X50656278Y-84211120D01*
X50593924Y-84179596D01*
X50591100Y-84176860D01*
X47106130Y-80691888D01*
X47106129Y-80691887D01*
X46991391Y-80615222D01*
X46863916Y-80562421D01*
X46863906Y-80562418D01*
X46728580Y-80535500D01*
X46728578Y-80535500D01*
X46728577Y-80535500D01*
X46709057Y-80535500D01*
X46642018Y-80515815D01*
X46607482Y-80482623D01*
X46524840Y-80364597D01*
X46357748Y-80197506D01*
X46357742Y-80197501D01*
X46172188Y-80067575D01*
X46128563Y-80012998D01*
X46121369Y-79943500D01*
X46152892Y-79881145D01*
X46172188Y-79864425D01*
X46308276Y-79769135D01*
X46357747Y-79734495D01*
X46359423Y-79732819D01*
X46360341Y-79732317D01*
X46361890Y-79731018D01*
X46362151Y-79731329D01*
X46420746Y-79699334D01*
X46447104Y-79696500D01*
X48124888Y-79696500D01*
X48147539Y-79691994D01*
X48221534Y-79677275D01*
X48318182Y-79658051D01*
X48380603Y-79632195D01*
X48500260Y-79582632D01*
X48664128Y-79473139D01*
X48803485Y-79333782D01*
X48803485Y-79333780D01*
X48813693Y-79323573D01*
X48813694Y-79323570D01*
X49928448Y-78208819D01*
X49989771Y-78175334D01*
X50016129Y-78172500D01*
X55066861Y-78172500D01*
X55133900Y-78192185D01*
G37*
%TD.AperFunction*%
%TD*%
M02*
