<?xml version="1.0" encoding="UTF-8" standalone="no"?>
<!-- Created with Inkscape (http://www.inkscape.org/) -->

<svg
   width="26.826269mm"
   height="26.826269mm"
   viewBox="0 0 26.826269 26.826269"
   version="1.1"
   id="svg1"
   xmlns="http://www.w3.org/2000/svg"
   xmlns:svg="http://www.w3.org/2000/svg">
  <defs
     id="defs1" />
  <g
     id="layer1"
     transform="translate(-103.03075,-20.685654)">
    <path
       style="font-weight:bold;font-size:25.4px;font-family:Arial;-inkscape-font-specification:'Arial Bold';fill:#000000;fill-opacity:1;stroke:none;stroke-width:8.219;stroke-linecap:round;stroke-linejoin:round;stroke-opacity:1;paint-order:stroke fill markers"
       d="m 120.91493,34.104987 q 0,1.227832 -0.60772,2.244824 -0.60771,1.016992 -1.62471,1.624707 -1.00459,0.595312 -2.24482,0.595312 -1.22783,0 -2.24482,-0.595312 -1.017,-0.607715 -1.62471,-1.624707 -0.59531,-1.016992 -0.59531,-2.244824 0,-1.227832 0.59531,-2.244824 0.60771,-1.016993 1.62471,-1.612305 1.01699,-0.607715 2.24482,-0.607715 1.24023,0 2.24482,0.607715 1.017,0.595312 1.62471,1.612305 0.60772,1.016992 0.60772,2.244824 z m -0.44649,0 q 0,-1.116211 -0.5457,-2.021582 -0.5457,-0.917774 -1.46348,-1.451074 -0.90537,-0.545704 -2.02158,-0.545704 -1.10381,0 -2.02158,0.545704 -0.91778,0.5333 -1.46348,1.451074 -0.5333,0.905371 -0.5333,2.021582 0,1.116211 0.5333,2.033984 0.5457,0.905371 1.46348,1.451074 0.91777,0.533301 2.02158,0.533301 1.11621,0 2.02158,-0.533301 0.91778,-0.545703 1.46348,-1.451074 0.5457,-0.917773 0.5457,-2.033984 z m 3.12539,0 q 0,-1.475879 -0.5581,-2.765723 -0.55811,-1.302246 -1.53789,-2.282031 -0.97979,-0.992188 -2.28204,-1.550293 -1.28984,-0.558106 -2.77812,-0.558106 -1.47588,0 -2.77813,0.558106 -1.28984,0.558105 -2.28203,1.550293 -0.97978,0.979785 -1.53789,2.282031 -0.5457,1.289844 -0.5457,2.765723 0,1.475879 0.5457,2.778125 0.55811,1.289843 1.53789,2.282031 0.99219,0.979785 2.28203,1.53789 1.30225,0.558106 2.77813,0.558106 1.48828,0 2.77812,-0.558106 1.30225,-0.558105 2.28204,-1.53789 0.97978,-0.992188 1.53789,-2.282031 0.5581,-1.302246 0.5581,-2.778125 z m -12.06748,0 q 0,-1.351856 0.65733,-2.468067 0.66972,-1.116211 1.78593,-1.773535 1.11621,-0.669726 2.46807,-0.669726 1.36426,0 2.48047,0.669726 1.11621,0.657324 1.77353,1.773535 0.66973,1.116211 0.66973,2.468067 0,1.351855 -0.66973,2.468066 -0.65732,1.116211 -1.77353,1.785938 -1.11621,0.657324 -2.48047,0.657324 -1.35186,0 -2.46807,-0.657324 -1.11621,-0.669727 -1.78593,-1.785938 -0.65733,-1.116211 -0.65733,-2.468066 z m -6.08955,6.957714 q -0.0372,-1.041796 0.63252,-1.835546 l 1.079,-1.277442 -1.66191,-0.136426 q -1.0418,-0.08682 -1.74873,-0.855761 -0.70693,-0.768946 -0.70693,-1.810742 V 33.06319 q 0,-1.041797 0.70693,-1.810742 0.70693,-0.768946 1.74873,-0.855762 l 1.66191,-0.136426 -1.079,-1.277441 q -0.66973,-0.79375 -0.63252,-1.847949 0.0496,-1.041797 0.79375,-1.785938 l 1.46348,-1.463476 q 0.74414,-0.731739 1.78594,-0.781348 1.04179,-0.03721 1.83554,0.632519 l 1.27744,1.066602 0.13643,-1.649512 q 0.0868,-1.054199 0.85576,-1.761132 0.76895,-0.706934 1.82315,-0.706934 h 2.07119 q 1.04179,0 1.81074,0.706934 0.76894,0.719335 0.85576,1.761132 l 0.13643,1.649512 1.27744,-1.066602 q 0.79375,-0.669726 1.84795,-0.632519 1.04179,0.04961 1.78593,0.781348 l 1.46348,1.463476 q 0.73174,0.744141 0.78135,1.785938 0.0372,1.054199 -0.63252,1.847949 l -1.079,1.277441 1.66191,0.136426 q 1.0418,0.08682 1.76113,0.855762 0.70694,0.768945 0.70694,1.810742 v 2.071191 q 0,1.054199 -0.70694,1.823145 -0.71933,0.768945 -1.76113,0.855761 l -1.66191,0.136426 1.079,1.277442 q 0.66973,0.79375 0.63252,1.835546 -0.0496,1.041797 -0.78135,1.785938 l -1.46348,1.463476 q -0.74414,0.744141 -1.78593,0.781348 -1.0542,0.04961 -1.84795,-0.632519 l -1.27744,-1.066602 -0.13643,1.661914 q -0.0868,1.041797 -0.85576,1.748731 -0.76895,0.706933 -1.81074,0.706933 h -2.07119 q -1.0542,0 -1.82315,-0.706933 -0.76894,-0.706934 -0.85576,-1.748731 l -0.13643,-1.661914 -1.27744,1.066602 q -0.79375,0.682128 -1.83554,0.632519 -1.0418,-0.03721 -1.78594,-0.781348 l -1.46348,-1.463476 q -0.74414,-0.731738 -0.79375,-1.785938 z m 9.36377,-18.343066 q -0.26045,0.235645 -0.28525,0.58291 l -0.21084,2.530079 q -0.0372,0.37207 -0.26045,0.669726 -0.22324,0.310059 -0.57051,0.458887 -0.34727,0.136426 -0.71934,0.08682 -0.37207,-0.06201 -0.65732,-0.310058 l -1.93477,-1.63711 q -0.26045,-0.223242 -0.60771,-0.21084 -0.35967,0.02481 -0.60772,0.26045 l -1.46347,1.475879 q -0.24805,0.235644 -0.26045,0.58291 -0.0124,0.359668 0.21084,0.620117 l 1.63711,1.934765 q 0.24804,0.285254 0.29765,0.657325 0.062,0.37207 -0.0744,0.719336 -0.14883,0.347265 -0.45889,0.570507 -0.29765,0.223243 -0.66972,0.26045 l -2.53008,0.210839 q -0.34727,0.02481 -0.58291,0.285254 -0.23565,0.248047 -0.23565,0.607715 v 2.071192 q 0,0.347265 0.23565,0.607714 0.23564,0.248047 0.58291,0.285254 l 2.53008,0.21084 q 0.37207,0.02481 0.66972,0.248047 0.31006,0.223242 0.45889,0.570508 0.13643,0.347265 0.0744,0.719336 -0.0496,0.37207 -0.29765,0.657324 l -1.63711,1.934766 q -0.22324,0.272851 -0.21084,0.620117 0.0124,0.347265 0.26045,0.595312 l 1.46347,1.463477 q 0.24805,0.248047 0.60772,0.260449 0.34726,0.0124 0.60771,-0.21084 l 1.93477,-1.637109 q 0.28525,-0.235645 0.65732,-0.297656 0.37207,-0.06201 0.71934,0.08682 0.34727,0.136426 0.57051,0.446484 0.22324,0.310059 0.26045,0.682129 l 0.21084,2.517676 q 0.0248,0.347266 0.28525,0.58291 0.24805,0.235645 0.60772,0.235645 h 2.07119 q 0.34726,0 0.60771,-0.235645 0.26045,-0.235644 0.28526,-0.58291 l 0.21084,-2.517676 q 0.0248,-0.384472 0.24804,-0.682129 0.22324,-0.310058 0.57051,-0.446484 0.34727,-0.148828 0.71934,-0.08682 0.37207,0.04961 0.65732,0.297656 l 1.93477,1.637109 q 0.27285,0.223242 0.62011,0.21084 0.34727,-0.0124 0.59532,-0.260449 l 1.46347,-1.463477 q 0.24805,-0.248047 0.26045,-0.595312 0.0124,-0.347266 -0.21084,-0.620117 l -1.63711,-1.934766 q -0.23564,-0.285254 -0.29765,-0.657324 -0.062,-0.372071 0.0868,-0.719336 0.13643,-0.347266 0.44649,-0.570508 0.31005,-0.223242 0.68213,-0.248047 l 2.51767,-0.21084 q 0.35967,-0.03721 0.59531,-0.285254 0.23565,-0.260449 0.22325,-0.607714 V 33.06319 q 0.0124,-0.347266 -0.22325,-0.607715 -0.23564,-0.260449 -0.59531,-0.285254 l -2.51767,-0.21084 q -0.37208,-0.0248 -0.68213,-0.248047 -0.31006,-0.223242 -0.44649,-0.570507 -0.14883,-0.347266 -0.0868,-0.719336 0.062,-0.372071 0.29765,-0.657325 l 1.63711,-1.934765 q 0.22324,-0.272852 0.21084,-0.620117 -0.0124,-0.347266 -0.26045,-0.595313 l -1.46347,-1.463476 q -0.24805,-0.248047 -0.59532,-0.26045 -0.34726,-0.0124 -0.62011,0.21084 l -1.93477,1.63711 q -0.28525,0.235644 -0.65732,0.297656 -0.37207,0.06201 -0.71934,-0.08682 -0.34727,-0.148828 -0.57051,-0.446484 -0.22324,-0.297656 -0.24804,-0.682129 l -0.21084,-2.517676 q -0.0248,-0.359668 -0.28526,-0.595312 -0.26045,-0.235645 -0.60771,-0.223242 h -2.07119 q -0.35967,0 -0.60772,0.235644 z"
       id="text2"
       aria-label="⚙️" />
  </g>
</svg>
