<?xml version="1.0" encoding="UTF-8" standalone="no"?>
<!-- Created with Inkscape (http://www.inkscape.org/) -->

<svg
   width="26.813868mm"
   height="26.813866mm"
   viewBox="0 0 26.813868 26.813866"
   version="1.1"
   id="svg1"
   xmlns="http://www.w3.org/2000/svg"
   xmlns:svg="http://www.w3.org/2000/svg">
  <defs
     id="defs1" />
  <g
     id="layer1"
     transform="translate(-23.168308,-21.434114)">
    <path
       style="font-weight:bold;font-size:25.4px;font-family:Arial;-inkscape-font-specification:'Arial Bold';fill:#000000;fill-opacity:1;stroke:none;stroke-width:8.219;stroke-linecap:round;stroke-linejoin:round;stroke-opacity:1;paint-order:stroke fill markers"
       d="m 35.992331,35.461165 -5.246191,5.506641 q -0.285254,0.285253 -0.644922,0.285253 -0.359668,-0.0124 -0.632519,-0.248046 Q 29.20825,40.756966 29.20825,40.347688 V 29.334407 q 0,-0.409277 0.260449,-0.644922 0.272851,-0.248046 0.632519,-0.248046 0.359668,-0.0124 0.644922,0.272851 l 5.246191,5.506641 q 0.248047,0.260449 0.248047,0.620117 0,0.359668 -0.248047,0.620117 z m 1.475879,-6.424414 v 11.608594 q 0,0.186035 0.124024,0.322461 0.136426,0.136425 0.322461,0.136425 h 1.785937 q 0.186035,0 0.322461,-0.136425 0.136426,-0.136426 0.136426,-0.322461 V 29.036751 q 0,-0.186035 -0.136426,-0.322461 -0.136426,-0.136426 -0.322461,-0.136426 h -1.785937 q -0.186035,0 -0.322461,0.136426 -0.124024,0.136426 -0.124024,0.322461 z m 4.030762,-0.458887 h 1.785937 q 0.186036,0 0.310059,0.136426 0.136426,0.136426 0.136426,0.322461 v 11.608594 q 0,0.186035 -0.136426,0.322461 -0.124023,0.136425 -0.310059,0.136425 h -1.785937 q -0.186035,0 -0.322461,-0.136425 -0.124023,-0.136426 -0.124023,-0.322461 V 29.036751 q 0,-0.186035 0.124023,-0.322461 0.136426,-0.136426 0.322461,-0.136426 z m -13.86582,-7.14375 h 17.884179 q 1.227832,0 2.244824,0.607715 1.016993,0.595313 1.612305,1.612305 0.607715,1.016992 0.607715,2.244824 v 17.88418 q 0,1.227832 -0.607715,2.244824 -0.595312,1.016992 -1.612305,1.612304 -1.016992,0.607715 -2.244824,0.607715 H 27.633152 q -1.227832,0 -2.244824,-0.607715 -1.016992,-0.595312 -1.624707,-1.612304 -0.595313,-1.016992 -0.595313,-2.244824 v -17.88418 q 0,-1.227832 0.595313,-2.244824 0.607715,-1.016992 1.624707,-1.612305 1.016992,-0.607715 2.244824,-0.607715 z m -2.678906,4.464844 v 17.88418 q 0,1.103808 0.781347,1.885156 0.79375,0.79375 1.897559,0.79375 h 17.884179 q 1.116211,0 1.897559,-0.79375 0.781348,-0.781348 0.781348,-1.885156 v -17.88418 q 0,-1.103808 -0.781348,-1.885156 -0.781348,-0.79375 -1.897559,-0.79375 H 27.633152 q -1.103809,0 -1.897559,0.79375 -0.781347,0.781348 -0.781347,1.885156 z"
       id="text1"
       aria-label="⏯️" />
  </g>
</svg>
